<?xml version="1.0" encoding="UTF-8" standalone="no"?>
<!-- Created with Inkscape (http://www.inkscape.org/) -->

<svg
   xmlns:dc="http://purl.org/dc/elements/1.1/"
   xmlns:cc="http://creativecommons.org/ns#"
   xmlns:rdf="http://www.w3.org/1999/02/22-rdf-syntax-ns#"
   xmlns:svg="http://www.w3.org/2000/svg"
   xmlns="http://www.w3.org/2000/svg"
   xmlns:sodipodi="http://sodipodi.sourceforge.net/DTD/sodipodi-0.dtd"
   xmlns:inkscape="http://www.inkscape.org/namespaces/inkscape"
   width="146.88193mm"
   height="201.42622mm"
   viewBox="0 0 146.88192 201.42623"
   version="1.1"
   id="svg8"
   inkscape:version="0.92.3 (2405546, 2018-03-11)"
   sodipodi:docname="logo.svg">
  <defs
     id="defs2" />
  <sodipodi:namedview
     id="base"
     pagecolor="#ffffff"
     bordercolor="#666666"
     borderopacity="1.0"
     inkscape:pageopacity="0.0"
     inkscape:pageshadow="2"
     inkscape:zoom="0.49497475"
     inkscape:cx="383.73973"
     inkscape:cy="183.16636"
     inkscape:document-units="mm"
     inkscape:current-layer="layer1"
     showgrid="false"
     inkscape:window-width="1920"
     inkscape:window-height="1017"
     inkscape:window-x="-8"
     inkscape:window-y="-8"
     inkscape:window-maximized="1"
     showguides="false" />
  <metadata
     id="metadata5">
    <rdf:RDF>
      <cc:Work
         rdf:about="">
        <dc:format>image/svg+xml</dc:format>
        <dc:type
           rdf:resource="http://purl.org/dc/dcmitype/StillImage" />
        <dc:title />
      </cc:Work>
    </rdf:RDF>
  </metadata>
  <g
     inkscape:label="Layer 1"
     inkscape:groupmode="layer"
     id="layer1"
     transform="translate(-134.82002,-243.78132)">
    <path
       style="fill:#c20015;fill-opacity:1;stroke:none;stroke-width:0.99999994px;stroke-linecap:butt;stroke-linejoin:miter;stroke-opacity:1"
       d="M 141.53711 73.419922 L 43.511719 94.251953 L 28.257812 102.58203 L 0 103.5 L 10.34375 123.16992 L 28.400391 122.53906 L 44.458984 113.76953 L 141.67383 93.279297 L 141.53711 73.419922 z "
       id="path5383"
       transform="matrix(0.26458333,0,0,0.26458333,134.82002,243.78132)" />
    <path
       inkscape:connector-curvature="0"
       style="fill:#bab49f;fill-opacity:1;stroke:#bab49f;stroke-width:0.26458332px;stroke-linecap:butt;stroke-linejoin:miter;stroke-opacity:1"
       d="m 264.77465,243.89942 -92.48272,19.42569 0.0362,5.22448 87.61843,-18.56992 c 0,0 0.52715,2.38309 1.17667,3.38584 0.72884,1.1252 2.10578,2.45202 3.67316,3.76049 z"
       id="path2839-7-1" />
    <path
       style="fill:#e6e5d8;fill-opacity:1;stroke:#e6e5d8;stroke-width:0.26458332px;stroke-linecap:butt;stroke-linejoin:miter;stroke-opacity:1"
       d="m 137.55671,276.37001 4.77744,-0.16704 4.24904,-2.32029 113.33991,-24.0209 c 0,0 0.52721,2.38278 1.17673,3.38553 2.44632,3.77667 12.13943,9.82505 12.13943,9.82505 l -135.11006,27.8192 z"
       id="path2845-3"
       inkscape:connector-curvature="0"
       sodipodi:nodetypes="ccccsccc" />
    <path
       style="fill:#c20015;fill-opacity:1;stroke:#c20015;stroke-width:0.99999994;stroke-linecap:butt;stroke-linejoin:miter;stroke-miterlimit:4;stroke-dasharray:none;stroke-opacity:1"
       d="M 0 103.5 L 0.140625 706.3125 C 0.140625 706.3125 2.278225 716.18472 7.2070312 722.28125 C 10.936593 726.89435 18.340706 733.67456 24.636719 738.39844 C 40.386388 750.21536 56.939453 761.29688 56.939453 761.29688 L 56.798828 158.48242 C 56.798828 158.48242 43.357611 155.91483 32.160156 149.82227 C 24.303123 145.54724 17.751355 140.05456 13.984375 134.38281 C 11.624967 130.8304 10.34375 123.16992 10.34375 123.16992 L 0 103.5 z "
       transform="matrix(0.26458333,0,0,0.26458333,134.82002,243.78132)"
       id="path2829-0" />
    <path
       style="fill:#990108;fill-opacity:1;stroke:#990108;stroke-width:0.26458332px;stroke-linecap:butt;stroke-linejoin:miter;stroke-opacity:1"
       d="m 149.8478,285.71336 4.70986,-2.82999 0.0374,159.49419 -4.70985,2.82999 z"
       id="path2831-2"
       inkscape:connector-curvature="0" />
    <path
       style="fill:#ac0004;fill-opacity:1;stroke:#ac0004;stroke-width:0.26458333;stroke-linecap:butt;stroke-linejoin:miter;stroke-opacity:1;stroke-miterlimit:4;stroke-dasharray:none"
       d="m 154.59506,442.37756 7.01587,0.26727 -0.0374,-159.49419 -7.01583,-0.26727 z"
       id="path2833-5"
       inkscape:connector-curvature="0" />
    <path
       style="fill:#a30316;fill-opacity:1;stroke:#a30316;stroke-width:0.26458333;stroke-linecap:butt;stroke-linejoin:miter;stroke-opacity:1;stroke-miterlimit:4;stroke-dasharray:none"
       d="m 161.57349,283.15064 25.7226,-5.39578 v 159.50798 l -25.68516,5.38199 z"
       id="path2837-1"
       inkscape:connector-curvature="0" />
    <path
       style="fill:#bab49f;fill-opacity:1;stroke:#bab49f;stroke-width:0.26458333;stroke-linecap:butt;stroke-linejoin:miter;stroke-opacity:1;stroke-miterlimit:4;stroke-dasharray:none"
       d="M 187.29609,437.26284 V 277.75486 l 94.40585,-20.03074 -0.26728,159.55967 z"
       id="path2841-9"
       inkscape:connector-curvature="0" />
    <g
       id="g1751"
       transform="rotate(0.43699329,15279.36,-13292.654)">
      <path
         style="opacity:1;fill:#ac0004;fill-opacity:1;stroke:none;stroke-width:0.49741673;stroke-linecap:square;stroke-linejoin:bevel;stroke-miterlimit:4;stroke-dasharray:none;stroke-opacity:1;paint-order:markers stroke fill"
         d="m 359.78726,434.59039 c -0.45034,0.52689 -0.15822,1.33846 -0.26128,1.98689 -0.0632,0.55606 0.091,1.21804 -0.15389,1.71655 -0.78128,0.77457 -1.92302,1.15042 -3.01856,1.06623 -1.81193,-0.0107 -3.72721,-0.004 -5.4414,-0.79906 -0.59755,-0.37071 -1.12478,-0.99314 -1.02836,-1.72151 -0.0768,-0.53288 0.0337,-1.08595 -0.0391,-1.60016 -0.29376,-0.74142 -1.14441,-0.23332 -1.65437,-0.14555 -8.49592,2.54291 -16.94072,5.23094 -25.39189,7.89865 -0.72311,0.24279 -0.3787,1.15489 -0.45951,1.74127 -0.044,1.71358 0.17211,3.45982 -0.0454,5.15264 -0.57502,0.86858 -1.77529,0.98409 -2.75296,1.10809 -1.9409,0.1057 -4.00708,0.23068 -5.84628,-0.70958 -0.71133,-0.2423 -1.18497,-0.93583 -1.1458,-1.67292 -0.13471,-0.68151 0.0969,-1.49621 -0.32475,-2.0751 -0.59175,-0.35932 -1.22941,0.20713 -1.82779,0.2852 -1.51536,0.51403 -3.10864,0.87404 -4.55224,1.55063 -0.49133,0.47118 0.13368,1.03549 0.55136,1.31686 2.63206,2.02501 5.29484,4.01885 7.84528,6.14746 0.54521,0.69123 1.33837,0.0281 1.97696,-0.0724 8.65401,-2.64916 17.34822,-5.19167 25.97081,-7.92957 7.93039,-2.91971 15.844,-5.88197 23.71812,-8.9339 0.52933,-0.19529 0.35818,-0.96499 -0.15785,-1.12666 -1.81279,-1.10498 -3.62171,-2.22639 -5.48593,-3.23396 -0.16595,-0.0782 -0.31571,0.0264 -0.47524,0.05 z"
         id="path1453-3-7-1-1"
         inkscape:connector-curvature="0" />
      <path
         style="opacity:1;fill:#a30316;fill-opacity:1;stroke:none;stroke-width:0.49741673;stroke-linecap:square;stroke-linejoin:bevel;stroke-miterlimit:4;stroke-dasharray:none;stroke-opacity:1;paint-order:markers stroke fill"
         d="m 366.06874,440.07806 c -7.62325,2.94812 -15.20697,6.03936 -22.86252,8.87741 -5.17172,1.8228 -10.51319,3.20393 -15.7841,4.77138 -3.86811,1.1225 -7.75232,2.20918 -11.62063,3.32365 -0.47731,0.49904 -0.17312,1.3223 -0.27301,1.9585 0.10472,14.82168 0.39982,29.66439 0.54621,44.48069 0.0788,0.66333 0.84991,0.67291 1.30716,0.48105 6.71756,-1.47949 13.30973,-3.38215 19.87249,-5.34895 4.72724,-1.55519 9.44473,-3.14898 14.06941,-4.95759 5.11825,-2.13094 10.21421,-4.32626 15.05029,-7.00023 0.42471,-0.51964 0.14658,-1.30927 0.24592,-1.94438 0.12576,-14.42113 0.0708,-28.85794 0.15436,-43.27874 -0.0165,-0.50578 0.23825,-1.45903 -0.70558,-1.36279 z"
         id="path1457-6-3-2-6"
         inkscape:connector-curvature="0" />
      <path
         style="opacity:1;fill:#a80004;fill-opacity:1;stroke:none;stroke-width:0.49741673;stroke-linecap:square;stroke-linejoin:bevel;stroke-miterlimit:4;stroke-dasharray:none;stroke-opacity:1;paint-order:markers stroke fill"
         d="m 365.94451,438.49546 c -3.4907,1.14476 -6.89039,2.53225 -10.33089,3.80603 -5.31391,1.97302 -10.57733,4.07812 -15.98039,5.8305 -8.12538,2.53771 -16.30516,4.92501 -24.43207,7.45672 -0.67591,0.26136 -0.2589,1.019 0.0587,1.44261 0.36842,0.70739 1.18823,0.39183 1.72377,0.20005 8.49148,-2.47108 17.02383,-4.82648 25.47054,-7.42615 8.02153,-3.05827 15.99187,-6.23478 23.9852,-9.3581 0.52912,-0.34847 0.23583,-1.12489 0.0657,-1.6487 -0.1226,-0.16624 -0.34609,-0.33649 -0.56049,-0.30296 z"
         id="path1455-1-9-0-4"
         inkscape:connector-curvature="0" />
      <path
         style="opacity:1;fill:#c20015;fill-opacity:1;stroke:none;stroke-width:0.49741673;stroke-linecap:square;stroke-linejoin:bevel;stroke-miterlimit:4;stroke-dasharray:none;stroke-opacity:1;paint-order:markers stroke fill"
         d="m 305.57693,448.96247 c -0.38269,0.60006 -0.13906,1.41784 -0.21056,2.11596 0.2235,10.38678 0.49628,20.77568 0.76653,31.16417 0.16625,4.93033 0.23501,9.86177 0.56289,14.79382 0.13711,0.73849 1.00929,1.00637 1.50956,1.48011 2.52163,1.79522 5.06107,3.58947 7.62971,5.29825 0.69363,0.28195 0.80978,-0.60123 0.71268,-1.0957 -0.1975,-15.1188 -0.40362,-30.23802 -0.60693,-45.3571 -0.69543,-1.68566 -2.37562,-2.65153 -3.72788,-3.77223 -2.02776,-1.54424 -4.02454,-3.15335 -6.07741,-4.64905 -0.202,-0.1293 -0.36435,-0.0509 -0.55854,0.0217 z"
         id="path1451-2-4-1-8"
         inkscape:connector-curvature="0" />
      <path
         sodipodi:nodetypes="cccccccccccccccccccccccccccccccccccccccccccsssccccccccccccccccccccccccccccccccccccccsssc"
         inkscape:connector-curvature="0"
         id="path959-7-8-2-1"
         d="m 312.12273,448.17282 0.0615,-9.57768 0.0802,-5.31971 0.11298,-3.24003 0.39354,-3.28255 1.0646,-4.61203 1.17316,-3.27874 1.78862,-3.74487 0.83067,-1.52486 0.8863,-1.34046 0.76035,-1.12757 0.90973,-1.12365 0.98904,-1.23797 0.76878,-0.86126 0.64129,-0.69831 1.60866,-1.4872 1.96658,-1.59475 1.08927,-0.78284 1.96898,-1.14782 2.10181,-1.02675 2.10891,-0.80312 2.18565,-0.60119 1.2579,-0.27275 1.97645,-0.17157 2.35801,0.0266 1.65787,0.13764 1.97089,0.39275 1.93065,0.60335 1.78364,0.77591 1.57685,0.91159 1.28495,0.95096 1.21749,1.04329 1.1031,1.13435 0.99671,1.10804 1.06772,1.49797 0.96109,1.67408 0.78588,1.6421 1.09589,3.13218 0.60796,2.53251 0.3814,3.52615 0.18733,5.54372 0.0354,8.1504 0.0392,4.11205 c 0,0 -0.53745,0.72612 -1.45317,1.16168 -0.67188,0.31959 -1.63049,0.39738 -2.51002,0.40969 -1.65004,0.0236 -3.547,-0.35755 -4.33209,-0.56186 -1.7686,-0.46022 -2.10521,-1.98311 -2.10521,-1.98311 l 0.15601,-6.1815 -0.0398,-5.32818 -0.13752,-4.34293 -0.12005,-2.30806 -0.39836,-2.20951 -0.57195,-1.76719 -0.81994,-1.82075 -1.00195,-1.27281 -1.0581,-1.0097 -0.87264,-0.52269 -1.02317,-0.46196 -1.46452,-0.32653 -1.83626,-0.0306 -1.44625,0.25017 -1.31453,0.33594 -1.76863,0.6239 -1.40068,0.76291 -1.46133,0.8848 -1.51786,1.13613 -1.28862,1.15392 -1.47564,1.54296 -1.14796,1.52216 -0.62781,0.91254 -0.78402,1.34943 -0.47028,0.88728 -0.52892,1.07389 -0.35954,0.86666 -0.58364,1.56638 -0.27776,0.85705 -0.36158,1.5428 -0.40452,1.48287 -0.22495,1.22886 -0.12007,0.46722 -0.0901,1.59695 -0.0696,1.32114 -0.0899,3.08456 0.29454,13.55489 c 0,0 -0.0731,0.89574 -1.61162,1.41929 -0.98578,0.33551 -3.23433,0.3851 -4.01097,0.36573 -1.77735,-0.0437 -2.64742,-0.47705 -3.50078,-0.79075 -1.72112,-0.6327 -1.53529,-2.48157 -1.53529,-2.48157 z"
         style="fill:#e6e5d8;fill-opacity:1;stroke:none;stroke-width:0.26458326px;stroke-linecap:butt;stroke-linejoin:miter;stroke-opacity:1" />
    </g>
  </g>
</svg>
