<?xml version="1.0" encoding="UTF-8" standalone="no"?>
<!-- Created with Inkscape (http://www.inkscape.org/) -->

<svg
   xmlns:dc="http://purl.org/dc/elements/1.1/"
   xmlns:cc="http://creativecommons.org/ns#"
   xmlns:rdf="http://www.w3.org/1999/02/22-rdf-syntax-ns#"
   xmlns:svg="http://www.w3.org/2000/svg"
   xmlns="http://www.w3.org/2000/svg"
   xmlns:sodipodi="http://sodipodi.sourceforge.net/DTD/sodipodi-0.dtd"
   xmlns:inkscape="http://www.inkscape.org/namespaces/inkscape"
   width="324.29904mm"
   height="324.29904mm"
   viewBox="0 0 324.29903 324.29906"
   version="1.1"
   id="svg8"
   inkscape:version="0.92.3 (2405546, 2018-03-11)"
   sodipodi:docname="logo-square.svg"
   inkscape:export-filename="D:\Projects\securebook\assets\original\logo-512x512.png"
   inkscape:export-xdpi="40.101261"
   inkscape:export-ydpi="40.101261">
  <defs
     id="defs2" />
  <sodipodi:namedview
     id="base"
     pagecolor="#ffffff"
     bordercolor="#666666"
     borderopacity="1.0"
     inkscape:pageopacity="0.0"
     inkscape:pageshadow="2"
     inkscape:zoom="0.49497475"
     inkscape:cx="473.27452"
     inkscape:cy="526.05881"
     inkscape:document-units="mm"
     inkscape:current-layer="layer1"
     showgrid="false"
     inkscape:window-width="1920"
     inkscape:window-height="1017"
     inkscape:window-x="-8"
     inkscape:window-y="-8"
     inkscape:window-maximized="1"
     showguides="false" />
  <metadata
     id="metadata5">
    <rdf:RDF>
      <cc:Work
         rdf:about="">
        <dc:format>image/svg+xml</dc:format>
        <dc:type
           rdf:resource="http://purl.org/dc/dcmitype/StillImage" />
        <dc:title></dc:title>
      </cc:Work>
    </rdf:RDF>
  </metadata>
  <g
     inkscape:label="Layer 1"
     inkscape:groupmode="layer"
     id="layer1"
     transform="translate(-546.10399,-157.84965)">
    <g
       id="g934"
       transform="translate(15.759491,8.4777195e-6)">
      <g
         transform="translate(-10.215717,-61.044091)"
         id="g852">
        <path
           style="fill:#c20015;fill-opacity:1;stroke:none;stroke-width:0.26458332px;stroke-linecap:butt;stroke-linejoin:miter;stroke-opacity:1"
           d="m 666.717,274.96687 -25.93588,5.51181 -4.03593,2.204 -7.47655,0.24288 2.73679,5.20433 4.77748,-0.16691 4.24884,-2.32028 25.72143,-5.42137 z"
           id="path5383"
           inkscape:connector-curvature="0" />
        <path
           inkscape:connector-curvature="0"
           style="fill:#bab49f;fill-opacity:1;stroke:#bab49f;stroke-width:0.26458332px;stroke-linecap:butt;stroke-linejoin:miter;stroke-opacity:1"
           d="m 759.22327,255.65928 -92.48272,19.42569 0.0362,5.22448 87.61843,-18.56992 c 0,0 0.52715,2.38309 1.17667,3.38584 0.72884,1.1252 2.10578,2.45202 3.67316,3.76049 z"
           id="path2839-7-1" />
        <path
           style="fill:#e6e5d8;fill-opacity:1;stroke:#e6e5d8;stroke-width:0.26458332px;stroke-linecap:butt;stroke-linejoin:miter;stroke-opacity:1"
           d="m 632.00533,288.12987 4.77744,-0.16704 4.24904,-2.32029 113.33991,-24.0209 c 0,0 0.52721,2.38278 1.17673,3.38553 2.44632,3.77667 12.13943,9.82505 12.13943,9.82505 l -135.11006,27.8192 z"
           id="path2845-3"
           inkscape:connector-curvature="0"
           sodipodi:nodetypes="ccccsccc" />
        <path
           style="fill:#c20015;fill-opacity:1;stroke:#c20015;stroke-width:0.26458332;stroke-linecap:butt;stroke-linejoin:miter;stroke-miterlimit:4;stroke-dasharray:none;stroke-opacity:1"
           d="m 629.26864,282.92556 0.0372,159.49414 c 0,0 0.56557,2.61202 1.86965,4.22506 0.98678,1.22055 2.94579,3.01448 4.61161,4.26434 4.1671,3.12656 8.54676,6.05855 8.54676,6.05855 l -0.0372,-159.49466 c 0,0 -3.55632,-0.67934 -6.51898,-2.29133 -2.07884,-1.1311 -3.81233,-2.58437 -4.80901,-4.08503 -0.62426,-0.9399 -0.96325,-2.96674 -0.96325,-2.96674 z"
           id="path2829-0"
           inkscape:connector-curvature="0" />
        <path
           style="fill:#990108;fill-opacity:1;stroke:#990108;stroke-width:0.26458332px;stroke-linecap:butt;stroke-linejoin:miter;stroke-opacity:1"
           d="m 644.29642,297.47322 4.70986,-2.82999 0.0374,159.49419 -4.70985,2.82999 z"
           id="path2831-2"
           inkscape:connector-curvature="0" />
        <path
           style="fill:#ac0004;fill-opacity:1;stroke:#ac0004;stroke-width:0.26458332;stroke-linecap:butt;stroke-linejoin:miter;stroke-miterlimit:4;stroke-dasharray:none;stroke-opacity:1"
           d="m 649.04368,454.13742 7.01587,0.26727 -0.0374,-159.49419 -7.01583,-0.26727 z"
           id="path2833-5"
           inkscape:connector-curvature="0" />
        <path
           style="fill:#a30316;fill-opacity:1;stroke:#a30316;stroke-width:0.26458332;stroke-linecap:butt;stroke-linejoin:miter;stroke-miterlimit:4;stroke-dasharray:none;stroke-opacity:1"
           d="m 656.02211,294.9105 25.7226,-5.39578 V 449.0227 l -25.68516,5.38199 z"
           id="path2837-1"
           inkscape:connector-curvature="0" />
        <path
           style="fill:#bab49f;fill-opacity:1;stroke:#bab49f;stroke-width:0.26458332;stroke-linecap:butt;stroke-linejoin:miter;stroke-miterlimit:4;stroke-dasharray:none;stroke-opacity:1"
           d="M 681.74471,449.0227 V 289.51472 l 94.40585,-20.03074 -0.26728,159.55967 z"
           id="path2841-9"
           inkscape:connector-curvature="0" />
      </g>
      <path
         inkscape:connector-curvature="0"
         id="path898"
         d="m 692.49402,158.03358 -146.25774,49.07401 v 4.9785 c 0,105.93422 50.98283,205.96283 133.06371,261.04298 l 13.19403,8.84856 5.1e-4,-5.2e-4 h -5.1e-4 v -15.72152 l -6.86212,-4.6023 C 608.45065,409.85188 560.02714,316.48165 558.46706,217.05117 l 134.02696,-44.97504 z"
         style="fill:#c20015;fill-opacity:1;stroke:#c20015;stroke-width:0.26458332;stroke-miterlimit:4;stroke-dasharray:none;stroke-opacity:1" />
      <path
         id="path898-6"
         d="m 692.49402,158.03358 146.25774,49.07402 v 4.9785 c 0,105.93421 -50.98283,205.96283 -133.06371,261.04297 l -13.19403,8.84857 h -5.3e-4 5.3e-4 v -15.72152 l 6.86212,-4.60229 C 776.5374,409.85188 824.9609,316.48165 826.52099,217.05118 L 692.49402,172.07613 Z"
         style="fill:#a30316;fill-opacity:1;stroke:#a30316;stroke-width:0.26458332;stroke-miterlimit:4;stroke-dasharray:none;stroke-opacity:1"
         inkscape:connector-curvature="0" />
    </g>
  </g>
</svg>
