<?xml version="1.0" encoding="UTF-8" standalone="no"?>
<!-- Created with Inkscape (http://www.inkscape.org/) -->

<svg
   xmlns:dc="http://purl.org/dc/elements/1.1/"
   xmlns:cc="http://creativecommons.org/ns#"
   xmlns:rdf="http://www.w3.org/1999/02/22-rdf-syntax-ns#"
   xmlns:svg="http://www.w3.org/2000/svg"
   xmlns="http://www.w3.org/2000/svg"
   xmlns:xlink="http://www.w3.org/1999/xlink"
   xmlns:sodipodi="http://sodipodi.sourceforge.net/DTD/sodipodi-0.dtd"
   xmlns:inkscape="http://www.inkscape.org/namespaces/inkscape"
   width="135.9073mm"
   height="184.1673mm"
   viewBox="0 0 135.9073 184.1673"
   version="1.1"
   id="svg8"
   inkscape:version="0.92.3 (2405546, 2018-03-11)"
   sodipodi:docname="01-03.svg">
  <defs
     id="defs2">
    <linearGradient
       inkscape:collect="always"
       id="linearGradient871">
      <stop
         style="stop-color:#871e1b;stop-opacity:1"
         offset="0"
         id="stop867" />
      <stop
         id="stop877"
         offset="0.5"
         style="stop-color:#df554f;stop-opacity:1" />
      <stop
         id="stop875"
         offset="1"
         style="stop-color:#d7362f;stop-opacity:1" />
    </linearGradient>
    <linearGradient
       inkscape:collect="always"
       xlink:href="#linearGradient871"
       id="linearGradient873"
       x1="187.85417"
       y1="145.20476"
       x2="191.02917"
       y2="145.20476"
       gradientUnits="userSpaceOnUse"
       gradientTransform="translate(-118.31663,50.090229)" />
  </defs>
  <sodipodi:namedview
     id="base"
     pagecolor="#ffffff"
     bordercolor="#666666"
     borderopacity="1.0"
     inkscape:pageopacity="0.0"
     inkscape:pageshadow="2"
     inkscape:zoom="0.7"
     inkscape:cx="1087.402"
     inkscape:cy="-816.50308"
     inkscape:document-units="mm"
     inkscape:current-layer="layer1"
     showgrid="false"
     inkscape:window-width="1920"
     inkscape:window-height="1017"
     inkscape:window-x="-8"
     inkscape:window-y="-8"
     inkscape:window-maximized="1"
     showguides="false" />
  <metadata
     id="metadata5">
    <rdf:RDF>
      <cc:Work
         rdf:about="">
        <dc:format>image/svg+xml</dc:format>
        <dc:type
           rdf:resource="http://purl.org/dc/dcmitype/StillImage" />
        <dc:title></dc:title>
      </cc:Work>
    </rdf:RDF>
  </metadata>
  <g
     inkscape:label="Layer 1"
     inkscape:groupmode="layer"
     id="layer1"
     transform="translate(-34.763953,-51.60195)">
    <path
       style="fill:#e5dacd;fill-opacity:1;stroke:#b6b6b6;stroke-width:2.53999996;stroke-linecap:square;stroke-linejoin:bevel;stroke-miterlimit:4;stroke-dasharray:none;stroke-opacity:1;paint-order:markers stroke fill"
       d="M 231.40798,61.157306 V 242.78461 h 133.3673 V 61.157306 Z"
       id="rect815"
       inkscape:connector-curvature="0" />
    <path
       style="fill:#d7362f;fill-opacity:1;stroke:none;stroke-width:0.33524212;stroke-miterlimit:4;stroke-dasharray:none;stroke-opacity:1"
       d="M 231.41663,61.165956 V 242.77596 h 25.4 V 61.165956 Z"
       id="rect815-5"
       inkscape:connector-curvature="0" />
    <rect
       style="fill:url(#linearGradient873);fill-opacity:1;stroke:none;stroke-width:0.74916917;stroke-miterlimit:4;stroke-dasharray:none;stroke-opacity:1"
       id="rect834"
       width="6.3499999"
       height="181.61"
       x="231.41663"
       y="61.165955" />
    <path
       style="opacity:1;fill:#bab49f;fill-opacity:1;stroke:none;stroke-width:2.53999996;stroke-linecap:square;stroke-linejoin:bevel;stroke-miterlimit:4;stroke-dasharray:none;stroke-opacity:1;paint-order:markers stroke fill"
       d="m 549.69608,273.23989 c -9.4047,1.51241 -18.6737,3.808 -28.0041,5.72561 -21.444,4.67105 -42.924,9.23909 -64.3313,14.03876 -0.749,1.05335 -0.4449,2.71028 0.04,3.83208 1.3365,0.5441 2.9344,-0.51102 4.356,-0.5645 29.0254,-6.25125 58.1075,-12.2323 87.212,-18.10834 0.2033,0.89436 0.4284,2.9208 1.7399,2.51243 0.7702,-1.45155 0.1767,-3.32808 0.359,-4.92982 0.016,-0.99421 0,-2.52471 -1.3717,-2.50622 z"
       id="path1386"
       inkscape:connector-curvature="0" />
    <path
       style="opacity:1;fill:#c20015;fill-opacity:1;stroke:none;stroke-width:2.53999996;stroke-linecap:square;stroke-linejoin:bevel;stroke-miterlimit:4;stroke-dasharray:none;stroke-opacity:1;paint-order:markers stroke fill"
       d="m 456.16588,293.25796 c -7.479,1.51955 -14.9503,3.33125 -22.446,4.56968 -2.4672,0.94665 -5.3461,0.12013 -7.756,1.19384 -1.6125,2.38718 -0.4057,5.48012 -0.372,8.12125 2.7296,31.44656 4.5732,62.98437 6.5004,94.49874 1.3875,22.60989 2.4329,45.23148 3.378,67.86256 0.1329,2.25017 0.078,4.61105 1.2684,6.60596 0.9157,2.93151 3.2976,5.19561 5.573,7.14528 2.3199,1.75904 4.9135,3.23503 7.7842,3.80911 1.0598,0.40662 3.4637,0.76528 2.819,-1.08869 -3.2131,-57.00279 -5.9324,-114.03592 -9.1792,-171.0381 0.1448,-1.14667 -0.6607,-2.2044 -1.874,-2.07969 -4.97,-0.50785 -9.842,-2.75939 -13.2006,-6.49434 -0.8227,-1.03461 -1.1225,-2.38544 -1.0617,-3.68644 6.8544,0.13791 13.4872,-1.95724 20.1471,-3.28663 3.1462,-0.74362 6.328,-1.36878 9.4404,-2.23781 0.6906,-0.93218 0.08,-2.35605 -0.2036,-3.39202 -0.1521,-0.30285 -0.4649,-0.54024 -0.8174,-0.5027 z"
       id="path1388"
       inkscape:connector-curvature="0" />
    <path
       style="opacity:1;fill:#990108;fill-opacity:1;stroke:none;stroke-width:2.53999996;stroke-linecap:square;stroke-linejoin:bevel;stroke-miterlimit:4;stroke-dasharray:none;stroke-opacity:1;paint-order:markers stroke fill"
       d="m 446.12078,311.82588 c -1.2082,0.40337 -3.3027,0.98253 -2.8272,2.67844 2.8906,50.40003 5.3653,100.85152 8.1226,151.26985 0.4152,6.92966 0.6905,13.93115 1.1595,20.81822 0.8663,0.61475 2.1253,-0.67969 2.6579,-1.47197 0.1829,-3.69345 -0.312,-7.46997 -0.3851,-11.19235 -2.6575,-53.8749 -5.2952,-107.75236 -8.1404,-161.61776 -0.1243,-0.25051 -0.2506,-0.53406 -0.5873,-0.48443 z"
       id="path1390"
       inkscape:connector-curvature="0" />
    <path
       style="opacity:1;fill:#ac0004;fill-opacity:1;stroke:none;stroke-width:2.53999996;stroke-linecap:square;stroke-linejoin:bevel;stroke-miterlimit:4;stroke-dasharray:none;stroke-opacity:1;paint-order:markers stroke fill"
       d="m 449.50868,311.36286 c -1.0062,0.31025 -3.3168,-0.39096 -3.1211,1.30346 2.7713,55.53163 5.6184,111.06071 8.3278,166.59592 0.2239,2.00773 -0.043,4.14739 0.4816,6.07429 1.5548,0.0925 3.366,0.2753 4.8354,-0.41761 0.6037,-1.6094 0.037,-3.52619 0.1601,-5.2411 -1.8411,-47.03523 -4.1509,-94.05106 -6.253,-141.0752 -0.4417,-8.97749 -0.7701,-17.96121 -1.2998,-26.93386 -0.4771,-1.03751 -2.2299,-0.13816 -3.131,-0.3059 z"
       id="path1392"
       inkscape:connector-curvature="0" />
    <path
       style="opacity:1;fill:#a30316;fill-opacity:1;stroke:none;stroke-width:2.53999996;stroke-linecap:square;stroke-linejoin:bevel;stroke-miterlimit:4;stroke-dasharray:none;stroke-opacity:1;paint-order:markers stroke fill"
       d="m 474.21018,306.66894 c -6.7581,1.04297 -13.4303,2.6583 -20.101,4.16617 -0.9663,0.0948 -2.0878,0.56654 -1.7571,1.75187 2.5706,56.1876 5.1927,112.39441 7.5394,168.60027 0.3087,1.07643 -0.6023,3.94339 1.3073,3.39256 6.521,-1.89692 13.1354,-3.70568 19.5425,-5.84978 0.3519,-2.8835 -0.1015,-6.03667 -0.066,-9.02383 -1.5368,-51.57798 -2.8814,-103.1622 -4.6001,-154.73446 -0.2494,-2.59101 0.071,-5.33274 -0.6666,-7.83299 -0.2866,-0.35984 -0.753,-0.49291 -1.198,-0.46981 z"
       id="path1394"
       inkscape:connector-curvature="0" />
    <path
       style="opacity:1;fill:#bab49f;fill-opacity:1;stroke:none;stroke-width:2.53999996;stroke-linecap:square;stroke-linejoin:bevel;stroke-miterlimit:4;stroke-dasharray:none;stroke-opacity:1;paint-order:markers stroke fill"
       d="m 569.40618,286.25049 c -8.278,1.67671 -16.5259,3.61303 -24.8141,5.32982 -23.0925,4.98591 -46.2197,9.81968 -69.3138,14.78586 -0.8553,0.63618 0.3857,1.6577 0.031,2.52654 1.2145,26.73065 1.7926,53.50496 2.6389,80.25633 0.8943,29.6935 1.6275,59.39228 2.6427,89.08188 0.8543,1.19028 2.6414,-0.45995 3.8598,-0.46841 26.7069,-7.92732 53.4418,-15.76145 80.1318,-23.74558 0.8833,-1.17672 0.2406,-3.0256 0.5523,-4.44708 2.2359,-53.64974 4.4757,-107.30049 6.5107,-160.95778 0.2006,-1.30421 -0.9431,-2.47688 -2.2391,-2.36158 z"
       id="path1396"
       inkscape:connector-curvature="0" />
    <path
       style="opacity:1;fill:#dedac6;fill-opacity:1;stroke:none;stroke-width:2.53999996;stroke-linecap:square;stroke-linejoin:bevel;stroke-miterlimit:4;stroke-dasharray:none;stroke-opacity:1;paint-order:markers stroke fill"
       d="m 548.61868,277.8482 c -30.6852,6.17263 -61.3236,12.58039 -91.9379,19.09672 -8.3784,1.77901 -16.6502,4.10197 -25.1611,5.13868 -1.406,0.20346 -2.8736,-0.15489 -4.2309,0.25161 -0.4879,3.17849 2.1935,5.61566 4.5858,7.2429 3.3371,2.24575 7.3416,3.52823 11.3323,3.82477 1.7177,-0.59855 3.3813,-1.4908 5.2604,-1.57909 7.3427,-0.46478 14.3752,-2.77556 21.5909,-4.02814 29.7195,-6.26518 59.4443,-12.51569 89.1192,-18.98105 1.1588,-0.72605 -0.4781,-1.70879 -1.1595,-1.986 -3.6303,-1.95105 -7.6098,-4.49833 -8.7525,-8.71417 -0.1247,-0.2254 -0.3992,-0.32633 -0.6467,-0.26623 z"
       id="path1398"
       inkscape:connector-curvature="0" />
    <path
       style="fill:#d2ae83;fill-opacity:1;stroke:#676767;stroke-width:0.26458326px;stroke-linecap:butt;stroke-linejoin:miter;stroke-opacity:1"
       d="m 747.72724,394.26136 47.64591,-15.92392 6.55286,0.62395 6.21206,3.59659 0.21138,1.6925 -1.58379,46.24696 -4.3843,2.32707 -5.44714,2.6263 -2.92286,1.29651 -2.35821,1.03056 -2.52429,1.06381 -9.26679,3.45739 -5.31428,1.7952 -10.59536,3.19142 -7.13138,1.86797 -0.7633,0.0118 -8.82873,-6.01863 -0.18267,-0.43218 -0.11624,-6.38286 0.28514,-41.63236 z"
       id="path961"
       inkscape:connector-curvature="0" />
    <path
       style="fill:#c5c4cc;fill-opacity:1;stroke:#767676;stroke-width:0.26458326px;stroke-linecap:butt;stroke-linejoin:miter;stroke-opacity:1"
       d="m 753.72242,393.7627 0.36536,-9.57431 0.2491,-5.31905 0.21591,-3.2413 0.49821,-3.29116 1.21232,-4.63755 1.27875,-3.30779 1.90982,-3.78983 0.88017,-1.54586 0.93001,-1.363 0.79714,-1.14692 0.9466,-1.14692 1.02965,-1.26328 0.79715,-0.88097 0.66428,-0.71475 1.65802,-1.52861 2.01981,-1.64549 1.11558,-0.811 2.00805,-1.19886 2.13723,-1.08133 2.13723,-0.85801 2.2077,-0.6582 1.26824,-0.3056 1.98457,-0.22331 2.36036,-0.0353 1.65576,0.094 1.96109,0.34085 1.91411,0.55242 1.76145,0.72872 1.55007,0.86976 1.25652,0.91678 1.18604,1.0108 1.06862,1.10484 0.96293,1.08133 1.02164,1.46919 0.90928,1.648 0.73486,1.62064 0.99804,3.10179 0.52843,2.51527 0.2701,3.51431 0.0117,5.53592 -0.2231,8.14523 -0.0911,4.10888 c 0,0 -0.56121,0.73983 -1.49199,1.19918 -0.68292,0.33704 -1.64529,0.43993 -2.52641,0.4753 -1.65299,0.0664 -3.54045,-0.26435 -4.32013,-0.44796 -1.7564,-0.4136 -2.04515,-1.92687 -2.04515,-1.92687 l 0.35229,-6.18238 0.12918,-5.32436 v -4.33706 l -0.047,-2.30371 -0.32881,-2.19791 -0.51668,-1.75127 -0.7633,-1.7983 -0.96292,-1.24588 -1.02752,-0.98142 -0.85724,-0.49953 -1.00989,-0.43488 -1.45615,-0.28796 -1.83778,0.0176 -1.45613,0.28797 -1.32697,0.37024 -1.79081,0.66995 -1.42677,0.79925 -1.49138,0.92266 -1.55594,1.17534 -1.32696,1.18712 -1.52659,1.58084 -1.19779,1.55148 -0.65762,0.92853 -0.82787,1.36929 -0.49908,0.89915 -0.56368,1.0872 -0.38751,0.87564 -0.63413,1.58087 -0.30531,0.86388 -0.41102,1.55147 -0.4521,1.49271 -0.26422,1.23412 -0.13504,0.47014 -0.14092,1.59847 -0.11156,1.32229 -0.18788,3.08531 -0.13503,13.5401 c 0,0 -0.10167,0.89719 -1.65881,1.46082 -0.99777,0.36118 -3.25093,0.46972 -4.02801,0.47072 -1.77839,0.003 -2.63588,-0.40737 -3.48045,-0.69853 -1.70337,-0.58723 -1.45865,-2.44001 -1.45865,-2.44001 z"
       id="path959"
       inkscape:connector-curvature="0"
       sodipodi:nodetypes="cccccccccccccccccccccccccccccccccccccccccccsssccccccccccccccccccccccccccccccccccccccsssc" />
    <path
       sodipodi:nodetypes="cccc"
       inkscape:connector-curvature="0"
       id="path1439"
       d="m 756.05776,449.16542 0.85464,-46.39857 -0.91557,-1.37077 -8.78158,-6.69671"
       style="fill:none;stroke:#000000;stroke-width:0.26458332px;stroke-linecap:butt;stroke-linejoin:miter;stroke-opacity:1" />
    <path
       sodipodi:nodetypes="cccc"
       inkscape:connector-curvature="0"
       id="path1441"
       d="m 755.99683,401.39606 25.55536,-8.30012 3.59816,-1.28724 22.98773,-9.15052"
       style="fill:none;stroke:#000000;stroke-width:0.26458332px;stroke-linecap:butt;stroke-linejoin:miter;stroke-opacity:1" />
    <path
       sodipodi:nodetypes="cccc"
       inkscape:connector-curvature="0"
       id="path1443"
       d="m 756.9124,402.76684 25.43813,-7.89717 3.32879,-1.25839 22.67013,-9.3608"
       style="fill:none;stroke:#000000;stroke-width:0.26458332px;stroke-linecap:butt;stroke-linejoin:miter;stroke-opacity:1" />
    <path
       inkscape:connector-curvature="0"
       id="path1451"
       d="m 747.14274,394.72358 c -0.40224,0.60979 -0.18423,1.42076 -0.27797,2.12037 -0.10565,10.37553 -0.16203,20.75186 -0.22093,31.12786 0.0101,4.9234 -0.0775,9.85047 0.0944,14.77135 0.11388,0.73451 0.97875,0.97938 1.46466,1.43975 2.46811,1.72816 4.95408,3.45488 7.47199,5.0954 0.68562,0.26363 0.82995,-0.62214 0.7484,-1.11381 0.28176,-15.10575 0.55496,-30.21169 0.83093,-45.31757 -0.64289,-1.66653 -2.29474,-2.58784 -3.61329,-3.6725 -1.98151,-1.49026 -3.92996,-3.04617 -5.93817,-4.48725 -0.19815,-0.12393 -0.36322,-0.0413 -0.55997,0.0364 z"
       style="opacity:1;fill:#990108;fill-opacity:1;stroke:none;stroke-width:2.5400002;stroke-linecap:square;stroke-linejoin:bevel;stroke-miterlimit:4;stroke-dasharray:none;stroke-opacity:1;paint-order:markers stroke fill" />
    <path
       inkscape:connector-curvature="0"
       id="path1453"
       d="m 801.88228,378.93735 c -0.46765,0.53843 -0.20087,1.34192 -0.32464,1.99271 -0.081,0.55743 0.0525,1.21502 -0.20854,1.71969 -0.8069,0.79465 -1.96213,1.20025 -3.05647,1.14482 -1.81404,0.0368 -3.73211,0.0935 -5.42343,-0.65593 -0.58658,-0.35485 -1.09479,-0.96313 -0.97515,-1.69365 -0.0601,-0.53059 0.0682,-1.08627 0.0116,-1.59829 -0.27064,-0.73335 -1.13855,-0.2032 -1.652,-0.1021 -8.58806,2.76439 -17.12958,5.67248 -25.67678,8.56043 -0.73179,0.26162 -0.41585,1.16422 -0.51536,1.75242 -0.0984,1.71383 0.0626,3.4535 -0.20881,5.15114 -0.60335,0.88321 -1.8089,1.03013 -2.79183,1.1797 -1.94688,0.15658 -4.01981,0.33565 -5.83168,-0.55589 -0.70461,-0.22352 -1.15689,-0.90427 -1.09429,-1.642 -0.11327,-0.67763 0.14457,-1.49797 -0.25937,-2.0655 -0.58116,-0.34361 -1.23764,0.23926 -1.83931,0.33298 -1.53371,0.55351 -3.14057,0.95512 -4.60758,1.6692 -0.50694,0.48382 0.10102,1.03145 0.51033,1.30172 2.5714,1.95493 5.17453,3.8779 7.6609,5.93852 0.52403,0.67657 1.3393,-0.007 1.98194,-0.12424 8.74975,-2.87475 17.53637,-5.64394 26.25746,-8.60653 8.03373,-3.12616 16.05201,-6.29441 24.03362,-9.55125 0.53623,-0.20907 0.38925,-0.97387 -0.12235,-1.12193 -1.78019,-1.05686 -3.556,-2.13024 -5.39078,-3.08841 -0.16369,-0.0738 -0.31697,0.0347 -0.47746,0.0624 z"
       style="opacity:1;fill:#990108;fill-opacity:1;stroke:none;stroke-width:2.5400002;stroke-linecap:square;stroke-linejoin:bevel;stroke-miterlimit:4;stroke-dasharray:none;stroke-opacity:1;paint-order:markers stroke fill" />
    <path
       inkscape:connector-curvature="0"
       id="path1455"
       d="m 807.92402,382.6789 c -3.53174,1.23571 -6.98003,2.71164 -10.4656,4.07498 -5.38368,2.11135 -10.72099,4.35338 -16.18694,6.24655 -8.21687,2.74947 -16.48344,5.35004 -24.70166,8.09355 -0.68511,0.27895 -0.29157,1.02526 0.013,1.44032 0.34649,0.69736 1.17742,0.36046 1.71976,0.15475 8.58134,-2.69248 17.19995,-5.27042 25.74055,-8.09024 8.1294,-3.26703 16.21128,-6.65091 24.31449,-9.98223 0.54089,-0.36216 0.27183,-1.13048 0.11811,-1.64957 -0.1175,-0.16293 -0.33589,-0.32724 -0.55163,-0.28811 z"
       style="opacity:1;fill:#990108;fill-opacity:1;stroke:none;stroke-width:2.5400002;stroke-linecap:square;stroke-linejoin:bevel;stroke-miterlimit:4;stroke-dasharray:none;stroke-opacity:1;paint-order:markers stroke fill" />
    <path
       inkscape:connector-curvature="0"
       id="path1457"
       d="m 807.99821,384.25743 c -7.72708,3.14651 -15.4191,6.43502 -23.17504,9.47235 -5.23653,1.95747 -10.62906,3.47798 -15.95681,5.18282 -3.90893,1.22335 -7.83286,2.41133 -11.74176,3.62667 -0.49379,0.51131 -0.21529,1.32614 -0.33552,1.96464 -0.36526,14.81121 -0.54052,29.63846 -0.86392,44.4432 0.0579,0.66093 0.82971,0.65026 1.29368,0.44653 6.77358,-1.65489 13.43502,-3.72943 20.06902,-5.86732 4.78298,-1.67835 9.55741,-3.39502 14.24572,-5.32397 5.19277,-2.26406 10.36524,-4.59187 15.29268,-7.39127 0.44178,-0.53051 0.18831,-1.31244 0.30792,-1.94982 0.5833,-14.4169 0.98621,-28.84477 1.52734,-43.26024 0,-0.50512 0.28485,-1.46453 -0.66331,-1.34359 z"
       style="opacity:1;fill:#990108;fill-opacity:1;stroke:none;stroke-width:2.5400002;stroke-linecap:square;stroke-linejoin:bevel;stroke-miterlimit:4;stroke-dasharray:none;stroke-opacity:1;paint-order:markers stroke fill" />
    <path
       style="fill:#d2ae83;fill-opacity:1;stroke:#676767;stroke-width:0.26458326px;stroke-linecap:butt;stroke-linejoin:miter;stroke-opacity:1"
       d="m 825.78951,410.51227 47.6459,-15.92392 6.55287,0.62395 6.21206,3.5966 0.21138,1.6925 -1.58379,46.24695 -4.38431,2.32708 -5.44713,2.6263 -2.92287,1.29651 -2.35821,1.03056 -2.52428,1.0638 -9.26679,3.45739 -5.31428,1.7952 -10.59536,3.19143 -7.13138,1.86797 -0.7633,0.0117 -8.82873,-6.01862 -0.18268,-0.43218 -0.11624,-6.38286 0.28515,-41.63236 z"
       id="path961-9"
       inkscape:connector-curvature="0" />
    <path
       sodipodi:nodetypes="cccc"
       inkscape:connector-curvature="0"
       id="path1439-5"
       d="m 834.12003,465.41633 0.85463,-46.39857 -0.91557,-1.37077 -8.78157,-6.6967"
       style="fill:none;stroke:#000000;stroke-width:0.26458332px;stroke-linecap:butt;stroke-linejoin:miter;stroke-opacity:1" />
    <path
       sodipodi:nodetypes="cccc"
       inkscape:connector-curvature="0"
       id="path1441-7"
       d="m 834.05909,417.64697 25.55537,-8.30012 3.59816,-1.28723 22.98773,-9.15052"
       style="fill:none;stroke:#000000;stroke-width:0.26458332px;stroke-linecap:butt;stroke-linejoin:miter;stroke-opacity:1" />
    <path
       sodipodi:nodetypes="cccc"
       inkscape:connector-curvature="0"
       id="path1443-6"
       d="m 834.97466,419.01775 25.43814,-7.89716 3.32879,-1.25839 22.67013,-9.3608"
       style="fill:none;stroke:#000000;stroke-width:0.26458332px;stroke-linecap:butt;stroke-linejoin:miter;stroke-opacity:1" />
    <path
       inkscape:connector-curvature="0"
       id="path1453-3"
       d="m 962.53233,403.50375 c -0.46765,0.53843 -0.20087,1.34192 -0.32465,1.99271 -0.0809,0.55742 0.0525,1.21502 -0.20854,1.71969 -0.8069,0.79465 -1.96212,1.20025 -3.05647,1.14483 -1.81403,0.0368 -3.73211,0.0935 -5.42343,-0.65594 -0.58657,-0.35485 -1.09479,-0.96313 -0.97514,-1.69364 -0.0601,-0.5306 0.0682,-1.08628 0.0117,-1.5983 -0.27064,-0.73334 -1.13856,-0.2032 -1.65201,-0.1021 -8.58805,2.76439 -17.12957,5.67248 -25.67678,8.56043 -0.73178,0.26162 -0.41584,1.16422 -0.51536,1.75241 -0.0984,1.71385 0.0626,3.45351 -0.2088,5.15116 -0.60336,0.8832 -1.80891,1.03012 -2.79183,1.17969 -1.94689,0.15658 -4.01982,0.33565 -5.83169,-0.55589 -0.70461,-0.22352 -1.15689,-0.90426 -1.09429,-1.642 -0.11326,-0.67762 0.14458,-1.49797 -0.25936,-2.0655 -0.58116,-0.34362 -1.23765,0.23926 -1.83932,0.33298 -1.53371,0.55351 -3.14056,0.95511 -4.60757,1.6692 -0.50695,0.48382 0.10101,1.03145 0.51032,1.30172 2.5714,1.95493 5.17454,3.8779 7.66091,5.93852 0.52403,0.67657 1.33929,-0.007 1.98194,-0.12425 8.74974,-2.87474 17.53637,-5.64393 26.25746,-8.60652 8.03373,-3.12616 16.05201,-6.2944 24.03361,-9.55125 0.53623,-0.20907 0.38926,-0.97388 -0.12234,-1.12193 -1.7802,-1.05686 -3.556,-2.13025 -5.39078,-3.0884 -0.1637,-0.0738 -0.31697,0.0346 -0.47747,0.0623 z"
       style="opacity:1;fill:#c9a77d;fill-opacity:1;stroke:none;stroke-width:2.5400002;stroke-linecap:square;stroke-linejoin:bevel;stroke-miterlimit:4;stroke-dasharray:none;stroke-opacity:1;paint-order:markers stroke fill" />
    <path
       inkscape:connector-curvature="0"
       id="path1457-6"
       d="m 968.64825,408.82383 c -7.72707,3.14651 -15.41909,6.43502 -23.17503,9.47235 -5.23654,1.95747 -10.62906,3.47798 -15.95682,5.18282 -3.90893,1.22336 -7.83285,2.41134 -11.74176,3.62667 -0.49379,0.51131 -0.21529,1.32615 -0.33552,1.96464 -0.36525,14.81122 -0.54052,29.63846 -0.86391,44.4432 0.0579,0.66093 0.82971,0.65027 1.29367,0.44653 6.77358,-1.65489 13.43502,-3.72943 20.06903,-5.86732 4.78297,-1.67835 9.55741,-3.39502 14.24571,-5.32396 5.19277,-2.26407 10.36525,-4.59187 15.29269,-7.39127 0.44177,-0.53052 0.1883,-1.31244 0.30792,-1.94983 0.5833,-14.41691 0.9862,-28.84477 1.52733,-43.26025 0,-0.50511 0.28485,-1.46452 -0.66331,-1.34358 z"
       style="opacity:1;fill:#d2af84;fill-opacity:1;stroke:none;stroke-width:2.5400002;stroke-linecap:square;stroke-linejoin:bevel;stroke-miterlimit:4;stroke-dasharray:none;stroke-opacity:1;paint-order:markers stroke fill" />
    <path
       style="fill:#c0bece;fill-opacity:1;stroke:none;stroke-width:0.26458326px;stroke-linecap:butt;stroke-linejoin:miter;stroke-opacity:1"
       d="m 914.37248,418.32909 0.36536,-9.57431 0.2491,-5.31904 0.2159,-3.2413 0.49821,-3.29116 1.21232,-4.63756 1.27875,-3.30779 1.90983,-3.78983 0.88017,-1.54585 0.93,-1.36301 0.79715,-1.14692 0.94659,-1.14692 1.02965,-1.26327 0.79716,-0.88097 0.66427,-0.71476 1.65803,-1.52861 2.0198,-1.64549 1.11559,-0.81099 2.00805,-1.19887 2.13723,-1.08133 2.13723,-0.85801 2.20769,-0.6582 1.26825,-0.30559 1.98457,-0.22331 2.36035,-0.0352 1.65577,0.0941 1.96109,0.34085 1.9141,0.55242 1.76146,0.72872 1.55007,0.86976 1.25651,0.91678 1.18605,1.01081 1.06861,1.10483 0.96293,1.08133 1.02164,1.4692 0.90928,1.64799 0.73486,1.62064 0.99805,3.1018 0.52843,2.51526 0.27009,3.51431 0.0118,5.53593 -0.22311,8.14522 -0.0911,4.10888 c 0,0 -0.56121,0.73983 -1.49198,1.19918 -0.68292,0.33704 -1.6453,0.43993 -2.52641,0.4753 -1.653,0.0664 -3.54045,-0.26435 -4.32014,-0.44796 -1.75639,-0.4136 -2.04514,-1.92687 -2.04514,-1.92687 l 0.35228,-6.18238 0.12918,-5.32436 v -4.33706 l -0.047,-2.30371 -0.32881,-2.19791 -0.51669,-1.75127 -0.76329,-1.7983 -0.96293,-1.24588 -1.02751,-0.98142 -0.85724,-0.49953 -1.0099,-0.43488 -1.45615,-0.28796 -1.83777,0.0176 -1.45614,0.28796 -1.32697,0.37024 -1.7908,0.66995 -1.42678,0.79925 -1.49137,0.92266 -1.55595,1.17534 -1.32696,1.18712 -1.52659,1.58085 -1.19779,1.55147 -0.65761,0.92853 -0.82788,1.36929 -0.49908,0.89915 -0.56368,1.0872 -0.3875,0.87564 -0.63414,1.58087 -0.3053,0.86388 -0.41102,1.55147 -0.4521,1.49271 -0.26423,1.23413 -0.13504,0.47014 -0.14091,1.59846 -0.11156,1.32229 -0.18789,3.08531 -0.13503,13.5401 c 0,0 -0.10167,0.8972 -1.65881,1.46082 -0.99777,0.36118 -3.25092,0.46972 -4.02801,0.47072 -1.77838,0.003 -2.63588,-0.40737 -3.48045,-0.69853 -1.70337,-0.58723 -1.45864,-2.44001 -1.45864,-2.44001 z"
       id="path959-7"
       inkscape:connector-curvature="0"
       sodipodi:nodetypes="cccccccccccccccccccccccccccccccccccccccccccsssccccccccccccccccccccccccccccccccccccccsssc" />
    <path
       inkscape:connector-curvature="0"
       id="path1455-1"
       d="m 968.57407,407.24531 c -3.53174,1.23571 -6.98003,2.71163 -10.4656,4.07497 -5.38369,2.11136 -10.72099,4.35338 -16.18695,6.24655 -8.21687,2.74948 -16.48343,5.35004 -24.70165,8.09355 -0.68512,0.27895 -0.29157,1.02526 0.013,1.44032 0.34649,0.69736 1.17742,0.36047 1.71976,0.15475 8.58134,-2.69247 17.19996,-5.27041 25.74055,-8.09024 8.1294,-3.26702 16.21129,-6.65091 24.31449,-9.98223 0.54089,-0.36216 0.27184,-1.13048 0.11811,-1.64957 -0.11749,-0.16293 -0.33588,-0.32723 -0.55163,-0.2881 z"
       style="opacity:1;fill:#d0ab7e;fill-opacity:1;stroke:none;stroke-width:2.5400002;stroke-linecap:square;stroke-linejoin:bevel;stroke-miterlimit:4;stroke-dasharray:none;stroke-opacity:1;paint-order:markers stroke fill" />
    <path
       inkscape:connector-curvature="0"
       id="path1451-2"
       d="m 907.79279,419.28999 c -0.40225,0.60979 -0.18423,1.42075 -0.27798,2.12037 -0.10564,10.37552 -0.16202,20.75185 -0.22092,31.12785 0.0101,4.9234 -0.0775,9.85047 0.0943,14.77135 0.11388,0.73451 0.97874,0.97938 1.46465,1.43975 2.46812,1.72816 4.95409,3.45488 7.472,5.09541 0.68561,0.26362 0.82994,-0.62215 0.74839,-1.11382 0.28176,-15.10575 0.55497,-30.21169 0.83094,-45.31757 -0.6429,-1.66654 -2.29474,-2.58784 -3.61329,-3.6725 -1.98151,-1.49026 -3.92996,-3.04617 -5.93818,-4.48725 -0.19815,-0.12393 -0.36321,-0.0413 -0.55996,0.0364 z"
       style="opacity:1;fill:#c19b6f;fill-opacity:1;stroke:none;stroke-width:2.5400002;stroke-linecap:square;stroke-linejoin:bevel;stroke-miterlimit:4;stroke-dasharray:none;stroke-opacity:1;paint-order:markers stroke fill" />
    <g
       id="g1567">
      <g
         style="stroke:none;stroke-opacity:1;stroke-width:0.49741672;stroke-miterlimit:4;stroke-dasharray:none"
         id="g1559">
        <path
           inkscape:connector-curvature="0"
           id="path1453-3-7"
           d="m 839.94182,526.2803 c -0.46767,0.53843 -0.20088,1.34191 -0.32465,1.99271 -0.0809,0.55742 0.0525,1.21502 -0.20855,1.71969 -0.8069,0.79465 -1.96211,1.20025 -3.05646,1.14483 -1.81403,0.0368 -3.73212,0.0935 -5.42343,-0.65594 -0.58659,-0.35485 -1.09479,-0.96313 -0.97514,-1.69364 -0.0601,-0.5306 0.0682,-1.08628 0.0116,-1.5983 -0.27064,-0.73334 -1.13855,-0.2032 -1.652,-0.1021 -8.58806,2.76439 -17.12957,5.67248 -25.67678,8.56043 -0.73178,0.26162 -0.41585,1.16422 -0.51536,1.75241 -0.0984,1.71385 0.0626,3.45351 -0.20881,5.15115 -0.60335,0.88321 -1.8089,1.03013 -2.79182,1.1797 -1.94689,0.15658 -4.01982,0.33565 -5.83169,-0.55589 -0.70461,-0.22352 -1.15689,-0.90426 -1.09429,-1.642 -0.11327,-0.67762 0.14457,-1.49797 -0.25937,-2.0655 -0.58115,-0.34362 -1.23764,0.23926 -1.83931,0.33298 -1.53371,0.55351 -3.14057,0.95511 -4.60758,1.6692 -0.50694,0.48382 0.10101,1.03145 0.51033,1.30172 2.5714,1.95493 5.17453,3.8779 7.66091,5.93852 0.52402,0.67657 1.33929,-0.007 1.98193,-0.12425 8.74975,-2.87474 17.53638,-5.64393 26.25747,-8.60652 8.03373,-3.12616 16.05201,-6.29441 24.0336,-9.55125 0.53624,-0.20907 0.38927,-0.97388 -0.12233,-1.12193 -1.7802,-1.05686 -3.556,-2.13025 -5.39078,-3.08841 -0.1637,-0.0738 -0.31698,0.0347 -0.47747,0.0624 z"
           style="opacity:1;fill:#c9a77d;fill-opacity:1;stroke:none;stroke-width:0.49741672;stroke-linecap:square;stroke-linejoin:bevel;stroke-miterlimit:4;stroke-dasharray:none;stroke-opacity:1;paint-order:markers stroke fill" />
        <path
           inkscape:connector-curvature="0"
           id="path1457-6-3"
           d="m 846.05774,531.60038 c -7.72709,3.14651 -15.41911,6.43502 -23.17504,9.47235 -5.23653,1.95747 -10.62905,3.47797 -15.95681,5.18282 -3.90894,1.22336 -7.83287,2.41134 -11.74177,3.62667 -0.49379,0.5113 -0.21529,1.32615 -0.33551,1.96464 -0.36526,14.81122 -0.54053,29.63846 -0.86392,44.4432 0.0579,0.66092 0.82971,0.65027 1.29367,0.44653 6.77357,-1.65489 13.43502,-3.72943 20.06904,-5.86732 4.78297,-1.67835 9.5574,-3.39502 14.24571,-5.32397 5.19276,-2.26406 10.36525,-4.59187 15.29269,-7.39127 0.44177,-0.53051 0.18829,-1.31243 0.30792,-1.94982 0.58329,-14.41691 0.9862,-28.84477 1.52733,-43.26025 0,-0.50511 0.28485,-1.46452 -0.66331,-1.34358 z"
           style="opacity:1;fill:#d2af84;fill-opacity:1;stroke:none;stroke-width:0.49741672;stroke-linecap:square;stroke-linejoin:bevel;stroke-miterlimit:4;stroke-dasharray:none;stroke-opacity:1;paint-order:markers stroke fill" />
        <path
           inkscape:connector-curvature="0"
           id="path1455-1-9"
           d="m 845.98354,530.02186 c -3.53173,1.23571 -6.98003,2.71163 -10.46558,4.07497 -5.38369,2.11136 -10.721,4.35338 -16.18696,6.24655 -8.21687,2.74948 -16.48344,5.35004 -24.70166,8.09355 -0.68511,0.27895 -0.29156,1.02526 0.013,1.44032 0.34649,0.69736 1.17742,0.36047 1.71976,0.15475 8.58134,-2.69248 17.19996,-5.27042 25.74055,-8.09024 8.12939,-3.26703 16.21129,-6.65091 24.31448,-9.98223 0.5409,-0.36216 0.27183,-1.13048 0.11812,-1.64957 -0.11749,-0.16293 -0.33588,-0.32723 -0.55164,-0.2881 z"
           style="opacity:1;fill:#d0ab7e;fill-opacity:1;stroke:none;stroke-width:0.49741672;stroke-linecap:square;stroke-linejoin:bevel;stroke-miterlimit:4;stroke-dasharray:none;stroke-opacity:1;paint-order:markers stroke fill" />
        <path
           inkscape:connector-curvature="0"
           id="path1451-2-4"
           d="m 785.20226,542.06654 c -0.40224,0.60978 -0.18423,1.42075 -0.27797,2.12037 -0.10564,10.37552 -0.16202,20.75185 -0.22092,31.12785 0.0101,4.9234 -0.0775,9.85047 0.0944,14.77135 0.11388,0.73451 0.97874,0.97938 1.46465,1.43975 2.46812,1.72816 4.95409,3.45488 7.472,5.09541 0.68561,0.26362 0.82994,-0.62215 0.7484,-1.11382 0.28175,-15.10575 0.55496,-30.21169 0.83092,-45.31757 -0.64289,-1.66654 -2.29473,-2.58784 -3.61328,-3.6725 -1.98152,-1.49026 -3.92996,-3.04617 -5.93818,-4.48725 -0.19815,-0.12393 -0.36322,-0.0413 -0.55997,0.0364 z"
           style="opacity:1;fill:#c19b6f;fill-opacity:1;stroke:none;stroke-width:0.49741672;stroke-linecap:square;stroke-linejoin:bevel;stroke-miterlimit:4;stroke-dasharray:none;stroke-opacity:1;paint-order:markers stroke fill" />
      </g>
      <path
         sodipodi:nodetypes="cccccccccccccccccccccccccccccccccccccccccccsssccccccccccccccccccccccccccccccccccccccsssc"
         inkscape:connector-curvature="0"
         id="path959-7-8"
         d="m 791.78196,541.10564 0.36536,-9.57431 0.2491,-5.31904 0.2159,-3.24131 0.49821,-3.29116 1.21232,-4.63755 1.27875,-3.30779 1.90983,-3.78983 0.88016,-1.54585 0.93001,-1.36301 0.79715,-1.14692 0.9466,-1.14692 1.02964,-1.26327 0.79715,-0.88097 0.66429,-0.71476 1.65802,-1.52861 2.01981,-1.64549 1.11559,-0.811 2.00804,-1.19886 2.13722,-1.08133 2.13724,-0.85801 2.20769,-0.6582 1.26824,-0.30559 1.98458,-0.22331 2.36036,-0.0352 1.65575,0.0941 1.96109,0.34085 1.91412,0.55242 1.76145,0.72872 1.55007,0.86976 1.25651,0.91678 1.18605,1.01081 1.06862,1.10483 0.96292,1.08133 1.02164,1.46919 0.90929,1.648 0.73486,1.62064 0.99803,3.1018 0.52845,2.51526 0.27008,3.51431 0.0117,5.53592 -0.2231,8.14523 -0.0911,4.10888 c 0,0 -0.56121,0.73983 -1.49199,1.19918 -0.68292,0.33704 -1.64529,0.43993 -2.52641,0.4753 -1.65299,0.0664 -3.54045,-0.26435 -4.32013,-0.44796 -1.7564,-0.4136 -2.04514,-1.92687 -2.04514,-1.92687 l 0.35228,-6.18238 0.12918,-5.32436 v -4.33706 l -0.047,-2.30371 -0.3288,-2.19791 -0.51669,-1.75127 -0.76329,-1.7983 -0.96293,-1.24588 -1.02752,-0.98142 -0.85723,-0.49953 -1.0099,-0.43488 -1.45615,-0.28796 -1.83777,0.0176 -1.45614,0.28797 -1.32697,0.37024 -1.79081,0.66995 -1.42677,0.79925 -1.49137,0.92266 -1.55595,1.17534 -1.32696,1.18712 -1.52659,1.58085 -1.19779,1.55147 -0.65761,0.92853 -0.82788,1.36929 -0.49908,0.89915 -0.56368,1.0872 -0.38751,0.87564 -0.63413,1.58087 -0.30531,0.86389 -0.41101,1.55147 -0.45211,1.49271 -0.26422,1.23412 -0.13504,0.47013 -0.14091,1.59848 -0.11157,1.32228 -0.18788,3.08531 -0.13503,13.5401 c 0,0 -0.10167,0.8972 -1.65881,1.46082 -0.99777,0.36118 -3.25093,0.46972 -4.02801,0.47072 -1.77838,0.003 -2.63588,-0.40737 -3.48045,-0.69853 -1.70337,-0.58723 -1.45865,-2.44001 -1.45865,-2.44001 z"
         style="fill:#c0bece;fill-opacity:1;stroke:#9894ae;stroke-width:0.26458326px;stroke-linecap:butt;stroke-linejoin:miter;stroke-opacity:1" />
    </g>
    <path
       inkscape:connector-curvature="0"
       id="path1453-3-7-1"
       d="m 537.5764,359.31168 c -0.44581,0.51928 -0.1464,1.33562 -0.24375,1.98224 -0.0583,0.55492 0.10184,1.21939 -0.13872,1.71373 -0.77464,0.76138 -1.91338,1.11807 -3.00998,1.01555 -1.81254,-0.041 -3.72832,-0.0666 -5.45006,-0.89003 -0.601,-0.38066 -1.1339,-1.01183 -1.04391,-1.73848 -0.0816,-0.5341 0.0241,-1.08524 -0.0533,-1.60059 -0.30042,-0.74624 -1.1468,-0.25245 -1.65615,-0.17323 -8.47582,2.40034 -16.89925,4.94663 -25.3292,7.4725 -0.72116,0.23065 -0.36858,1.14839 -0.44421,1.73333 -0.0288,1.71261 0.20282,3.46222 3.4e-4,5.15116 -0.56749,0.85884 -1.76708,0.95424 -2.74393,1.06185 -1.94053,0.0732 -4.00619,0.16358 -5.85426,-0.80734 -0.71368,-0.25417 -1.1936,-0.95553 -1.16096,-1.69187 -0.14078,-0.68366 0.0837,-1.49437 -0.34323,-2.08024 -0.5951,-0.36918 -1.22792,0.18652 -1.82579,0.25456 -1.51124,0.4886 -3.10179,0.82188 -4.53981,1.47421 -0.48729,0.46289 0.14289,1.03759 0.56319,1.32591 2.65077,2.06878 5.33198,4.10692 7.90202,6.27792 0.55149,0.70026 1.33901,0.0505 1.97689,-0.0393 8.63303,-2.50393 17.30722,-4.90055 25.90803,-7.49373 7.9068,-2.78655 15.79644,-5.61592 23.64579,-8.53562 0.52775,-0.1864 0.34973,-0.95886 -0.16788,-1.12914 -1.82311,-1.13517 -3.64249,-2.2867 -5.51618,-3.32534 -0.16669,-0.081 -0.31557,0.0211 -0.47493,0.042 z"
       style="opacity:1;fill:#c20015;fill-opacity:1;stroke:none;stroke-width:0.49741673;stroke-linecap:square;stroke-linejoin:bevel;stroke-miterlimit:4;stroke-dasharray:none;stroke-opacity:1;paint-order:markers stroke fill" />
    <path
       inkscape:connector-curvature="0"
       id="path1457-6-3-2"
       d="m 543.90832,364.90373 c -7.59933,2.8201 -15.15783,5.78396 -22.79044,8.49346 -5.15705,1.73597 -10.48783,3.0275 -15.74637,4.50649 -3.85927,1.0576 -7.73497,2.07911 -11.59452,3.12867 -0.47303,0.49098 -0.16145,1.31921 -0.25574,1.95365 0.23611,14.82136 0.66286,29.66693 0.94057,44.4836 0.0847,0.66456 0.85612,0.68704 1.3118,0.50287 6.70638,-1.36684 13.2836,-3.15888 19.83082,-5.01555 4.71482,-1.47584 9.41955,-2.99044 14.02954,-4.72138 5.10084,-2.04497 10.17881,-4.15468 14.99259,-6.74732 0.42023,-0.51246 0.135,-1.30663 0.22875,-1.93999 -0.002,-14.417 -0.18496,-28.85271 -0.22913,-43.27009 -0.0205,-0.50599 0.22538,-1.45484 -0.71787,-1.37441 z"
       style="opacity:1;fill:#a30316;fill-opacity:1;stroke:none;stroke-width:0.49741673;stroke-linecap:square;stroke-linejoin:bevel;stroke-miterlimit:4;stroke-dasharray:none;stroke-opacity:1;paint-order:markers stroke fill" />
    <path
       inkscape:connector-curvature="0"
       id="path1455-1-9-0"
       d="m 543.77003,363.31927 c -3.48156,1.08617 -6.86993,2.41655 -10.30013,3.63256 -5.29796,1.8838 -10.54424,3.90049 -15.93333,5.56219 -8.10524,2.40134 -16.26622,4.65138 -24.37304,7.04669 -0.67379,0.25001 -0.24994,1.01452 0.0715,1.44339 0.3748,0.71346 1.19205,0.41167 1.72604,0.22888 8.47202,-2.32859 16.98597,-4.54084 25.41207,-6.99875 7.99674,-2.92356 15.94124,-5.96621 23.90918,-8.95529 0.52619,-0.33956 0.22593,-1.12078 0.0511,-1.64737 -0.12411,-0.16827 -0.34917,-0.34223 -0.56334,-0.3123 z"
       style="opacity:1;fill:#ac0004;fill-opacity:1;stroke:none;stroke-width:0.49741673;stroke-linecap:square;stroke-linejoin:bevel;stroke-miterlimit:4;stroke-dasharray:none;stroke-opacity:1;paint-order:markers stroke fill" />
    <path
       inkscape:connector-curvature="0"
       id="path1451-2-4-1"
       d="m 483.47779,372.7743 c -0.37748,0.59357 -0.12654,1.41531 -0.19187,2.11213 0.31563,10.38907 0.68055,20.78108 1.04294,31.17264 0.21,4.93242 0.32245,9.86432 0.69415,14.80117 0.1437,0.74068 1.0185,1.02312 1.52311,1.50517 2.53828,1.83718 5.09436,3.67369 7.67888,5.42523 0.69632,0.29352 0.80468,-0.58759 0.70318,-1.08362 -0.33158,-15.11999 -0.67171,-30.24054 -1.00908,-45.36091 -0.71056,-1.69706 -2.3998,-2.69092 -3.76239,-3.8341 -2.04203,-1.57797 -4.05364,-3.22028 -6.12037,-4.75013 -0.20319,-0.13266 -0.3649,-0.057 -0.5585,0.0124 z"
       style="opacity:1;fill:#990108;fill-opacity:1;stroke:none;stroke-width:0.49741673;stroke-linecap:square;stroke-linejoin:bevel;stroke-miterlimit:4;stroke-dasharray:none;stroke-opacity:1;paint-order:markers stroke fill" />
    <path
       style="fill:#ead7c4;fill-opacity:1;stroke:none;stroke-width:0.26458326px;stroke-linecap:butt;stroke-linejoin:miter;stroke-opacity:1"
       d="m 490.01848,372.09433 -0.0234,-9.57531 0.0331,-5.31762 0.0843,-3.23769 0.36458,-3.2755 1.02403,-4.59356 1.14444,-3.25864 1.75596,-3.71441 0.81739,-1.51074 0.87467,-1.32544 0.75058,-1.11468 0.90003,-1.10826 0.97835,-1.22125 0.76138,-0.84827 0.63527,-0.68747 1.59596,-1.46007 1.953,-1.5616 1.08266,-0.7645 1.95936,-1.1147 2.09332,-0.99142 2.1024,-0.76771 2.18097,-0.56452 1.25583,-0.25165 1.97551,-0.13846 2.35893,0.0661 1.65957,0.16538 1.97493,0.42568 1.93655,0.63559 1.79104,0.80565 1.58538,0.93786 1.29374,0.97234 1.22709,1.06352 1.11348,1.15266 1.00682,1.12457 1.08129,1.51563 0.97621,1.68993 0.80066,1.65503 1.12397,3.15008 0.63057,2.54234 0.41277,3.53204 0.23647,5.54608 0.10762,8.14985 0.0757,4.11213 c 0,0 -0.53117,0.71702 -1.4433,1.13719 -0.66924,0.3083 -1.62743,0.37003 -2.50711,0.36762 -1.6503,-0.004 -3.55119,-0.41688 -4.33832,-0.6343 -1.77319,-0.48976 -2.12338,-2.01807 -2.12338,-2.01807 l 0.10126,-6.17803 -0.087,-5.3281 -0.17609,-4.34462 -0.14054,-2.30975 -0.41804,-2.21587 -0.58779,-1.77651 -0.83631,-1.83422 -1.01351,-1.28941 -1.06737,-1.02727 -0.87751,-0.53722 -1.02756,-0.47902 -1.46784,-0.351 -1.83706,-0.0613 -1.44445,0.22593 -1.31193,0.31389 -1.76361,0.5942 -1.39432,0.73936 -1.45391,0.86022 -1.50823,1.11056 -1.27876,1.13219 -1.4624,1.51804 -1.1348,1.50273 -0.61991,0.9019 -0.77228,1.33612 -0.46257,0.87928 -0.51954,1.06489 -0.35196,0.86052 -0.56994,1.55639 -0.27024,0.85228 -0.34801,1.53653 -0.3915,1.47589 -0.21412,1.22492 -0.11595,0.46515 -0.076,1.59522 -0.0579,1.31979 -0.0626,3.08262 0.41473,13.55792 c 0,0 -0.0652,0.89439 -1.5995,1.39211 -0.9831,0.31896 -3.23185,0.33091 -4.00889,0.29854 -1.77826,-0.0734 -2.65242,-0.5213 -3.50881,-0.84924 -1.72722,-0.66142 -1.55772,-2.50692 -1.55772,-2.50692 z"
       id="path959-7-8-2"
       inkscape:connector-curvature="0"
       sodipodi:nodetypes="cccccccccccccccccccccccccccccccccccccccccccsssccccccccccccccccccccccccccccccccccccccsssc" />
    <path
       style="opacity:1;fill:#bab49f;fill-opacity:1;stroke:none;stroke-width:2.5400002;stroke-linecap:square;stroke-linejoin:bevel;stroke-miterlimit:4;stroke-dasharray:none;stroke-opacity:1;paint-order:markers stroke fill"
       d="m 363.87499,352.4556 c -9.4047,1.51241 -18.6737,3.808 -28.0041,5.72561 -21.444,4.67105 -42.92399,9.23909 -64.33129,14.03876 -0.74901,1.05335 -0.4449,2.71028 0.04,3.83208 1.3365,0.5441 2.9344,-0.51102 4.356,-0.5645 29.02539,-6.25125 58.10749,-12.2323 87.21199,-18.10834 0.2033,0.89436 0.4284,2.9208 1.7399,2.51243 0.77021,-1.45155 0.17671,-3.32808 0.359,-4.92982 0.016,-0.99421 0,-2.52471 -1.37169,-2.50622 z"
       id="path1386-5"
       inkscape:connector-curvature="0" />
    <path
       style="opacity:1;fill:#c20015;fill-opacity:1;stroke:none;stroke-width:2.5400002;stroke-linecap:square;stroke-linejoin:bevel;stroke-miterlimit:4;stroke-dasharray:none;stroke-opacity:1;paint-order:markers stroke fill"
       d="m 270.3448,372.47367 c -7.479,1.51955 -14.9503,3.33125 -22.446,4.56968 -2.4672,0.94665 -5.3461,0.12013 -7.756,1.19384 -1.6125,2.38718 -0.4057,5.48012 -0.372,8.12125 2.7296,31.44657 4.5732,62.98438 6.5004,94.49875 1.3875,22.60989 2.4329,45.23148 3.378,67.86256 0.1329,2.25017 0.078,4.61105 1.2684,6.60596 0.9157,2.93151 3.2976,5.19561 5.573,7.14528 2.3199,1.75904 4.9135,3.23503 7.7842,3.80911 1.0598,0.40662 3.4637,0.76528 2.819,-1.08869 -3.2131,-57.00279 -5.9324,-114.03592 -9.1792,-171.03811 0.1448,-1.14667 -0.6607,-2.2044 -1.874,-2.07969 -4.97,-0.50785 -9.842,-2.75939 -13.2006,-6.49434 -0.8227,-1.03461 -1.1225,-2.38544 -1.0617,-3.68644 6.8544,0.13791 13.4872,-1.95724 20.1471,-3.28663 3.1462,-0.74362 6.328,-1.36878 9.4404,-2.23781 0.6906,-0.93218 0.08,-2.35605 -0.2036,-3.39202 -0.1521,-0.30285 -0.46491,-0.54024 -0.8174,-0.5027 z"
       id="path1388-2"
       inkscape:connector-curvature="0" />
    <path
       style="opacity:1;fill:#990108;fill-opacity:1;stroke:none;stroke-width:2.5400002;stroke-linecap:square;stroke-linejoin:bevel;stroke-miterlimit:4;stroke-dasharray:none;stroke-opacity:1;paint-order:markers stroke fill"
       d="m 260.2997,391.04159 c -1.2082,0.40337 -3.3027,0.98253 -2.8272,2.67844 2.8906,50.40004 5.3653,100.85153 8.1226,151.26986 0.4152,6.92966 0.6905,13.93115 1.1595,20.81822 0.8663,0.61475 2.1253,-0.67969 2.6579,-1.47197 0.1829,-3.69345 -0.31201,-7.46997 -0.3851,-11.19235 -2.6575,-53.8749 -5.2952,-107.75236 -8.1404,-161.61777 -0.1243,-0.25051 -0.2506,-0.53406 -0.5873,-0.48443 z"
       id="path1390-2"
       inkscape:connector-curvature="0" />
    <path
       style="opacity:1;fill:#ac0004;fill-opacity:1;stroke:none;stroke-width:2.5400002;stroke-linecap:square;stroke-linejoin:bevel;stroke-miterlimit:4;stroke-dasharray:none;stroke-opacity:1;paint-order:markers stroke fill"
       d="m 263.6876,390.57857 c -1.0062,0.31025 -3.3168,-0.39096 -3.1211,1.30346 2.7713,55.53164 5.61839,111.06072 8.3278,166.59593 0.2239,2.00773 -0.043,4.14739 0.4816,6.07429 1.5548,0.0925 3.366,0.2753 4.8354,-0.41761 0.60369,-1.6094 0.037,-3.52619 0.1601,-5.2411 -1.8411,-47.03523 -4.1509,-94.05106 -6.253,-141.0752 -0.4417,-8.97749 -0.7701,-17.96122 -1.2998,-26.93387 -0.4771,-1.03751 -2.2299,-0.13816 -3.131,-0.3059 z"
       id="path1392-6"
       inkscape:connector-curvature="0" />
    <path
       style="opacity:1;fill:#a30316;fill-opacity:1;stroke:none;stroke-width:2.5400002;stroke-linecap:square;stroke-linejoin:bevel;stroke-miterlimit:4;stroke-dasharray:none;stroke-opacity:1;paint-order:markers stroke fill"
       d="m 288.3891,385.88465 c -6.75811,1.04297 -13.4303,2.6583 -20.101,4.16617 -0.9663,0.0948 -2.0878,0.56654 -1.7571,1.75187 2.5706,56.18761 5.1927,112.39442 7.5394,168.60028 0.3087,1.07643 -0.6023,3.94339 1.30729,3.39256 6.521,-1.89692 13.13541,-3.70568 19.54251,-5.84978 0.3519,-2.8835 -0.1015,-6.03667 -0.066,-9.02383 -1.5368,-51.57798 -2.8814,-103.1622 -4.6001,-154.73447 -0.2494,-2.59101 0.071,-5.33274 -0.6666,-7.83299 -0.2866,-0.35984 -0.753,-0.49291 -1.198,-0.46981 z"
       id="path1394-8"
       inkscape:connector-curvature="0" />
    <path
       style="opacity:1;fill:#bab49f;fill-opacity:1;stroke:none;stroke-width:2.5400002;stroke-linecap:square;stroke-linejoin:bevel;stroke-miterlimit:4;stroke-dasharray:none;stroke-opacity:1;paint-order:markers stroke fill"
       d="m 383.58509,365.4662 c -8.278,1.67671 -16.5259,3.61303 -24.8141,5.32982 -23.0925,4.98591 -46.2197,9.81968 -69.31379,14.78586 -0.8553,0.63618 0.3857,1.6577 0.031,2.52654 1.2145,26.73066 1.7926,53.50497 2.63889,80.25634 0.89431,29.6935 1.62751,59.39228 2.6427,89.08188 0.8543,1.19028 2.64141,-0.45995 3.8598,-0.46841 26.7069,-7.92732 53.4418,-15.76145 80.1318,-23.74558 0.8833,-1.17672 0.24061,-3.0256 0.55231,-4.44708 2.23589,-53.64974 4.4757,-107.30049 6.5107,-160.95779 0.20059,-1.30421 -0.94311,-2.47688 -2.2391,-2.36158 z"
       id="path1396-3"
       inkscape:connector-curvature="0" />
    <path
       style="opacity:1;fill:#dedac6;fill-opacity:1;stroke:none;stroke-width:2.5400002;stroke-linecap:square;stroke-linejoin:bevel;stroke-miterlimit:4;stroke-dasharray:none;stroke-opacity:1;paint-order:markers stroke fill"
       d="m 362.79759,357.06391 c -30.6852,6.17263 -61.32359,12.58039 -91.93789,19.09672 -8.3784,1.77901 -16.6502,4.10197 -25.1611,5.13868 -1.406,0.20346 -2.8736,-0.15489 -4.2309,0.25161 -0.4879,3.17849 2.1935,5.61566 4.5858,7.2429 3.3371,2.24575 7.3416,3.52823 11.3323,3.82477 1.7177,-0.59855 3.3813,-1.4908 5.2604,-1.57909 7.3427,-0.46478 14.37519,-2.77556 21.5909,-4.02814 29.71949,-6.26518 59.44429,-12.51569 89.1192,-18.98105 1.15879,-0.72605 -0.4781,-1.70879 -1.1595,-1.986 -3.6303,-1.95105 -7.6098,-4.49833 -8.75251,-8.71417 -0.1247,-0.2254 -0.3992,-0.32633 -0.6467,-0.26623 z"
       id="path1398-3"
       inkscape:connector-curvature="0" />
    <path
       inkscape:connector-curvature="0"
       id="path1453-3-7-1-1"
       d="m 351.75531,438.5274 c -0.4458,0.51928 -0.1464,1.33562 -0.24375,1.98224 -0.0583,0.55492 0.10185,1.21939 -0.13872,1.71373 -0.77464,0.76138 -1.91338,1.11807 -3.00998,1.01555 -1.81254,-0.041 -3.72832,-0.0666 -5.45005,-0.89003 -0.60101,-0.38066 -1.13391,-1.01183 -1.04392,-1.73848 -0.0816,-0.5341 0.0241,-1.08524 -0.0533,-1.60059 -0.30041,-0.74624 -1.1468,-0.25245 -1.65614,-0.17323 -8.47583,2.40034 -16.89925,4.94663 -25.32921,7.4725 -0.72116,0.23065 -0.36858,1.14839 -0.44421,1.73333 -0.0288,1.71261 0.20282,3.46222 2.7e-4,5.15116 -0.56749,0.85884 -1.76708,0.95424 -2.74393,1.06185 -1.94053,0.0732 -4.00619,0.16358 -5.85426,-0.80734 -0.71368,-0.25417 -1.1936,-0.95553 -1.16096,-1.69187 -0.14078,-0.68366 0.0837,-1.49437 -0.34323,-2.08024 -0.5951,-0.36918 -1.22792,0.18652 -1.82579,0.25456 -1.51124,0.4886 -3.10179,0.82188 -4.53981,1.47421 -0.48729,0.46289 0.14289,1.03759 0.56319,1.32591 2.65077,2.06878 5.33198,4.10692 7.90202,6.27792 0.55149,0.70026 1.33901,0.0505 1.97689,-0.0393 8.63303,-2.50393 17.30722,-4.90055 25.90803,-7.49373 7.9068,-2.78655 15.79644,-5.61592 23.64579,-8.53562 0.52775,-0.1864 0.34973,-0.95886 -0.16788,-1.12914 -1.82311,-1.13517 -3.64249,-2.2867 -5.51618,-3.32534 -0.16669,-0.081 -0.31557,0.0211 -0.47493,0.042 z"
       style="opacity:1;fill:#c20015;fill-opacity:1;stroke:none;stroke-width:0.49741673;stroke-linecap:square;stroke-linejoin:bevel;stroke-miterlimit:4;stroke-dasharray:none;stroke-opacity:1;paint-order:markers stroke fill" />
    <path
       inkscape:connector-curvature="0"
       id="path1457-6-3-2-6"
       d="m 358.08723,444.11945 c -7.59932,2.8201 -15.15783,5.78396 -22.79044,8.49346 -5.15705,1.73597 -10.48783,3.0275 -15.74637,4.50649 -3.85927,1.0576 -7.73497,2.07911 -11.59452,3.12867 -0.47303,0.49098 -0.16145,1.31921 -0.25574,1.95365 0.23611,14.82136 0.66286,29.66693 0.94057,44.4836 0.0847,0.66456 0.85612,0.68704 1.3118,0.50287 6.70639,-1.36684 13.2836,-3.15888 19.83082,-5.01555 4.71482,-1.47584 9.41955,-2.99044 14.02954,-4.72138 5.10084,-2.04497 10.17882,-4.15468 14.99259,-6.74732 0.42023,-0.51246 0.13501,-1.30663 0.22876,-1.93999 -0.002,-14.417 -0.18496,-28.85271 -0.22914,-43.27009 -0.0205,-0.50599 0.22538,-1.45484 -0.71787,-1.37441 z"
       style="opacity:1;fill:#a30316;fill-opacity:1;stroke:none;stroke-width:0.49741673;stroke-linecap:square;stroke-linejoin:bevel;stroke-miterlimit:4;stroke-dasharray:none;stroke-opacity:1;paint-order:markers stroke fill" />
    <path
       inkscape:connector-curvature="0"
       id="path1455-1-9-0-4"
       d="m 357.94894,442.53499 c -3.48156,1.08617 -6.86993,2.41655 -10.30013,3.63256 -5.29796,1.8838 -10.54424,3.90049 -15.93333,5.56219 -8.10524,2.40134 -16.26622,4.65138 -24.37304,7.04669 -0.67379,0.25001 -0.24994,1.01452 0.0715,1.44339 0.3748,0.71346 1.19205,0.41167 1.72604,0.22888 8.47203,-2.32859 16.98597,-4.54084 25.41207,-6.99875 7.99674,-2.92356 15.94124,-5.96621 23.90919,-8.95529 0.52619,-0.33956 0.22593,-1.12078 0.0511,-1.64737 -0.12411,-0.16827 -0.34917,-0.34223 -0.56334,-0.3123 z"
       style="opacity:1;fill:#ac0004;fill-opacity:1;stroke:none;stroke-width:0.49741673;stroke-linecap:square;stroke-linejoin:bevel;stroke-miterlimit:4;stroke-dasharray:none;stroke-opacity:1;paint-order:markers stroke fill" />
    <path
       inkscape:connector-curvature="0"
       id="path1451-2-4-1-8"
       d="m 297.65671,451.99002 c -0.37748,0.59357 -0.12654,1.41531 -0.19187,2.11213 0.31563,10.38907 0.68055,20.78108 1.04294,31.17264 0.21,4.93242 0.32245,9.86432 0.69415,14.80117 0.1437,0.74068 1.0185,1.02312 1.52311,1.50517 2.53828,1.83718 5.09435,3.67369 7.67887,5.42523 0.69633,0.29352 0.80469,-0.58759 0.70318,-1.08362 -0.33158,-15.11999 -0.67171,-30.24054 -1.00908,-45.36091 -0.71056,-1.69706 -2.3998,-2.69092 -3.76238,-3.8341 -2.04203,-1.57797 -4.05364,-3.22028 -6.12037,-4.75013 -0.20319,-0.13266 -0.3649,-0.057 -0.5585,0.0124 z"
       style="opacity:1;fill:#990108;fill-opacity:1;stroke:none;stroke-width:0.49741673;stroke-linecap:square;stroke-linejoin:bevel;stroke-miterlimit:4;stroke-dasharray:none;stroke-opacity:1;paint-order:markers stroke fill" />
    <path
       style="fill:#ead7c4;fill-opacity:1;stroke:none;stroke-width:0.26458326px;stroke-linecap:butt;stroke-linejoin:miter;stroke-opacity:1"
       d="m 304.1974,451.31005 -0.0234,-9.57531 0.0331,-5.31762 0.0843,-3.23769 0.36457,-3.2755 1.02403,-4.59356 1.14444,-3.25864 1.75596,-3.71441 0.81739,-1.51074 0.87467,-1.32544 0.75058,-1.11468 0.90004,-1.10826 0.97835,-1.22125 0.76137,-0.84827 0.63528,-0.68747 1.59595,-1.46007 1.95301,-1.5616 1.08265,-0.7645 1.95937,-1.1147 2.09332,-0.99142 2.1024,-0.76771 2.18096,-0.56452 1.25584,-0.25165 1.9755,-0.13846 2.35893,0.0661 1.65957,0.16538 1.97493,0.42568 1.93656,0.63559 1.79103,0.80565 1.58538,0.93786 1.29375,0.97234 1.22709,1.06352 1.11348,1.15266 1.00681,1.12457 1.0813,1.51563 0.97621,1.68993 0.80066,1.65503 1.12396,3.15008 0.63058,2.54234 0.41276,3.53204 0.23648,5.54608 0.10761,8.14985 0.0757,4.11213 c 0,0 -0.53116,0.71702 -1.44329,1.13719 -0.66924,0.3083 -1.62744,0.37003 -2.50711,0.36762 -1.65031,-0.004 -3.55119,-0.41688 -4.33832,-0.6343 -1.77319,-0.48976 -2.12339,-2.01807 -2.12339,-2.01807 l 0.10127,-6.17803 -0.087,-5.3281 -0.17609,-4.34462 -0.14053,-2.30975 -0.41805,-2.21587 -0.58778,-1.77651 -0.83631,-1.83422 -1.01352,-1.28941 -1.06736,-1.02727 -0.87752,-0.53722 -1.02756,-0.47902 -1.46784,-0.351 -1.83706,-0.0613 -1.44445,0.22593 -1.31192,0.31389 -1.76362,0.5942 -1.39432,0.73936 -1.45391,0.86022 -1.50823,1.11056 -1.27876,1.13219 -1.4624,1.51804 -1.1348,1.50273 -0.6199,0.9019 -0.77229,1.33612 -0.46256,0.87928 -0.51955,1.06489 -0.35196,0.86052 -0.56993,1.55639 -0.27024,0.85228 -0.34802,1.53653 -0.39149,1.47589 -0.21412,1.22492 -0.11596,0.46515 -0.076,1.59522 -0.0579,1.31979 -0.0626,3.08262 0.41474,13.55792 c 0,0 -0.0652,0.89439 -1.59951,1.39211 -0.98309,0.31896 -3.23185,0.33091 -4.00889,0.29854 -1.77825,-0.0734 -2.65241,-0.5213 -3.5088,-0.84924 -1.72722,-0.66142 -1.55772,-2.50692 -1.55772,-2.50692 z"
       id="path959-7-8-2-1"
       inkscape:connector-curvature="0"
       sodipodi:nodetypes="cccccccccccccccccccccccccccccccccccccccccccsssccccccccccccccccccccccccccccccccccccccsssc" />
  </g>
</svg>
