<?xml version="1.0" encoding="UTF-8" standalone="no"?>
<!-- Created with Inkscape (http://www.inkscape.org/) -->

<svg
   xmlns:dc="http://purl.org/dc/elements/1.1/"
   xmlns:cc="http://creativecommons.org/ns#"
   xmlns:rdf="http://www.w3.org/1999/02/22-rdf-syntax-ns#"
   xmlns:svg="http://www.w3.org/2000/svg"
   xmlns="http://www.w3.org/2000/svg"
   xmlns:sodipodi="http://sodipodi.sourceforge.net/DTD/sodipodi-0.dtd"
   xmlns:inkscape="http://www.inkscape.org/namespaces/inkscape"
   width="146.54182mm"
   height="214.15144mm"
   viewBox="0 0 146.54182 214.15145"
   version="1.1"
   id="svg8"
   inkscape:version="0.92.3 (2405546, 2018-03-11)"
   sodipodi:docname="01-04.svg">
  <defs
     id="defs2" />
  <sodipodi:namedview
     id="base"
     pagecolor="#ffffff"
     bordercolor="#666666"
     borderopacity="1.0"
     inkscape:pageopacity="0.0"
     inkscape:pageshadow="2"
     inkscape:zoom="0.7"
     inkscape:cx="136.70269"
     inkscape:cy="318.19366"
     inkscape:document-units="mm"
     inkscape:current-layer="layer1"
     showgrid="false"
     inkscape:window-width="1920"
     inkscape:window-height="1017"
     inkscape:window-x="-8"
     inkscape:window-y="-8"
     inkscape:window-maximized="1"
     showguides="false" />
  <metadata
     id="metadata5">
    <rdf:RDF>
      <cc:Work
         rdf:about="">
        <dc:format>image/svg+xml</dc:format>
        <dc:type
           rdf:resource="http://purl.org/dc/dcmitype/StillImage" />
        <dc:title></dc:title>
      </cc:Work>
    </rdf:RDF>
  </metadata>
  <g
     inkscape:label="Layer 1"
     inkscape:groupmode="layer"
     id="layer1"
     transform="translate(-239.30554,-352.45543)">
    <path
       style="opacity:1;fill:#c20015;fill-opacity:1;stroke:none;stroke-width:2.5400002;stroke-linecap:square;stroke-linejoin:bevel;stroke-miterlimit:4;stroke-dasharray:none;stroke-opacity:1;paint-order:markers stroke fill"
       d="m 270.3448,372.47367 c -7.479,1.51955 -14.9503,3.33125 -22.446,4.56968 -2.4672,0.94665 -5.3461,0.12013 -7.756,1.19384 -1.6125,2.38718 -0.4057,5.48012 -0.372,8.12125 2.7296,31.44657 4.5732,62.98438 6.5004,94.49875 1.3875,22.60989 2.4329,45.23148 3.378,67.86256 0.1329,2.25017 0.078,4.61105 1.2684,6.60596 0.9157,2.93151 3.2976,5.19561 5.573,7.14528 2.3199,1.75904 4.9135,3.23503 7.7842,3.80911 1.0598,0.40662 3.4637,0.76528 2.819,-1.08869 -3.2131,-57.00279 -5.9324,-114.03592 -9.1792,-171.03811 0.1448,-1.14667 -0.6607,-2.2044 -1.874,-2.07969 -4.97,-0.50785 -9.842,-2.75939 -13.2006,-6.49434 -0.8227,-1.03461 -1.1225,-2.38544 -1.0617,-3.68644 6.8544,0.13791 13.4872,-1.95724 20.1471,-3.28663 3.1462,-0.74362 6.328,-1.36878 9.4404,-2.23781 0.6906,-0.93218 0.08,-2.35605 -0.2036,-3.39202 -0.1521,-0.30285 -0.46491,-0.54024 -0.8174,-0.5027 z"
       id="path1388-2"
       inkscape:connector-curvature="0" />
    <path
       style="opacity:1;fill:#bab49f;fill-opacity:1;stroke:none;stroke-width:2.5400002;stroke-linecap:square;stroke-linejoin:bevel;stroke-miterlimit:4;stroke-dasharray:none;stroke-opacity:1;paint-order:markers stroke fill"
       d="m 363.87499,352.4556 c -9.4047,1.51241 -18.6737,3.808 -28.0041,5.72561 -21.444,4.67105 -42.92399,9.23909 -64.33129,14.03876 -0.74901,1.05335 -0.4449,2.71028 0.04,3.83208 1.3365,0.5441 2.9344,-0.51102 4.356,-0.5645 29.02539,-6.25125 58.10749,-12.2323 87.21199,-18.10834 0.2033,0.89436 0.4284,2.9208 1.7399,2.51243 0.77021,-1.45155 0.17671,-3.32808 0.359,-4.92982 0.016,-0.99421 0,-2.52471 -1.37169,-2.50622 z"
       id="path1386-5"
       inkscape:connector-curvature="0" />
    <path
       style="opacity:1;fill:#e6e5d8;fill-opacity:1;stroke:none;stroke-width:2.5400002;stroke-linecap:square;stroke-linejoin:bevel;stroke-miterlimit:4;stroke-dasharray:none;stroke-opacity:1;paint-order:markers stroke fill"
       d="m 362.79759,357.06391 c -30.6852,6.17263 -61.32359,12.58039 -91.93789,19.09672 -8.3784,1.77901 -16.6502,4.10197 -25.1611,5.13868 -1.406,0.20346 -2.8736,-0.15489 -4.2309,0.25161 -0.4879,3.17849 2.1935,5.61566 4.5858,7.2429 3.3371,2.24575 7.3416,3.52823 11.3323,3.82477 1.7177,-0.59855 3.3813,-1.4908 5.2604,-1.57909 7.3427,-0.46478 14.37519,-2.77556 21.5909,-4.02814 29.71949,-6.26518 59.44429,-12.51569 89.1192,-18.98105 1.15879,-0.72605 -0.4781,-1.70879 -1.1595,-1.986 -3.6303,-1.95105 -7.6098,-4.49833 -8.75251,-8.71417 -0.1247,-0.2254 -0.3992,-0.32633 -0.6467,-0.26623 z"
       id="path1398-3"
       inkscape:connector-curvature="0" />
    <path
       style="opacity:1;fill:#990108;fill-opacity:1;stroke:none;stroke-width:2.5400002;stroke-linecap:square;stroke-linejoin:bevel;stroke-miterlimit:4;stroke-dasharray:none;stroke-opacity:1;paint-order:markers stroke fill"
       d="m 260.2997,391.04159 c -1.2082,0.40337 -3.3027,0.98253 -2.8272,2.67844 2.8906,50.40004 5.3653,100.85153 8.1226,151.26986 0.4152,6.92966 0.6905,13.93115 1.1595,20.81822 0.8663,0.61475 2.1253,-0.67969 2.6579,-1.47197 0.1829,-3.69345 -0.31201,-7.46997 -0.3851,-11.19235 -2.6575,-53.8749 -5.2952,-107.75236 -8.1404,-161.61777 -0.1243,-0.25051 -0.2506,-0.53406 -0.5873,-0.48443 z"
       id="path1390-2"
       inkscape:connector-curvature="0" />
    <path
       style="opacity:1;fill:#ac0004;fill-opacity:1;stroke:none;stroke-width:2.5400002;stroke-linecap:square;stroke-linejoin:bevel;stroke-miterlimit:4;stroke-dasharray:none;stroke-opacity:1;paint-order:markers stroke fill"
       d="m 263.6876,390.57857 c -1.0062,0.31025 -3.3168,-0.39096 -3.1211,1.30346 2.7713,55.53164 5.61839,111.06072 8.3278,166.59593 0.2239,2.00773 -0.043,4.14739 0.4816,6.07429 1.5548,0.0925 3.366,0.2753 4.8354,-0.41761 0.60369,-1.6094 0.037,-3.52619 0.1601,-5.2411 -1.8411,-47.03523 -4.1509,-94.05106 -6.253,-141.0752 -0.4417,-8.97749 -0.7701,-17.96122 -1.2998,-26.93387 -0.4771,-1.03751 -2.2299,-0.13816 -3.131,-0.3059 z"
       id="path1392-6"
       inkscape:connector-curvature="0" />
    <path
       style="opacity:1;fill:#a30316;fill-opacity:1;stroke:none;stroke-width:2.5400002;stroke-linecap:square;stroke-linejoin:bevel;stroke-miterlimit:4;stroke-dasharray:none;stroke-opacity:1;paint-order:markers stroke fill"
       d="m 288.3891,385.88465 c -6.75811,1.04297 -13.4303,2.6583 -20.101,4.16617 -0.9663,0.0948 -2.0878,0.56654 -1.7571,1.75187 2.5706,56.18761 5.1927,112.39442 7.5394,168.60028 0.3087,1.07643 -0.6023,3.94339 1.30729,3.39256 6.521,-1.89692 13.13541,-3.70568 19.54251,-5.84978 0.3519,-2.8835 -0.1015,-6.03667 -0.066,-9.02383 -1.5368,-51.57798 -2.8814,-103.1622 -4.6001,-154.73447 -0.2494,-2.59101 0.071,-5.33274 -0.6666,-7.83299 -0.2866,-0.35984 -0.753,-0.49291 -1.198,-0.46981 z"
       id="path1394-8"
       inkscape:connector-curvature="0" />
    <path
       style="opacity:1;fill:#bab49f;fill-opacity:1;stroke:none;stroke-width:2.5400002;stroke-linecap:square;stroke-linejoin:bevel;stroke-miterlimit:4;stroke-dasharray:none;stroke-opacity:1;paint-order:markers stroke fill"
       d="m 383.58509,365.4662 c -8.278,1.67671 -16.5259,3.61303 -24.8141,5.32982 -23.0925,4.98591 -46.2197,9.81968 -69.31379,14.78586 -0.8553,0.63618 0.3857,1.6577 0.031,2.52654 1.2145,26.73066 1.7926,53.50497 2.63889,80.25634 0.89431,29.6935 1.62751,59.39228 2.6427,89.08188 0.8543,1.19028 2.64141,-0.45995 3.8598,-0.46841 26.7069,-7.92732 53.4418,-15.76145 80.1318,-23.74558 1.2508,-0.39162 6.40287,-3.05327 6.71457,-4.47475 -0.032,-53.55525 0.15862,-105.27502 0.34844,-160.93012 0.20059,-1.30421 -0.94311,-2.47688 -2.2391,-2.36158 z"
       id="path1396-3"
       inkscape:connector-curvature="0"
       sodipodi:nodetypes="cccccccccccc" />
    <g
       id="g1751"
       transform="translate(-0.83586334,3.2760187)">
      <path
         style="opacity:1;fill:#ac0004;fill-opacity:1;stroke:none;stroke-width:0.49741673;stroke-linecap:square;stroke-linejoin:bevel;stroke-miterlimit:4;stroke-dasharray:none;stroke-opacity:1;paint-order:markers stroke fill"
         d="m 359.78726,434.59039 c -0.45034,0.52689 -0.15822,1.33846 -0.26128,1.98689 -0.0632,0.55606 0.091,1.21804 -0.15389,1.71655 -0.78128,0.77457 -1.92302,1.15042 -3.01856,1.06623 -1.81193,-0.0107 -3.72721,-0.004 -5.4414,-0.79906 -0.59755,-0.37071 -1.12478,-0.99314 -1.02836,-1.72151 -0.0768,-0.53288 0.0337,-1.08595 -0.0391,-1.60016 -0.29376,-0.74142 -1.14441,-0.23332 -1.65437,-0.14555 -8.49592,2.54291 -16.94072,5.23094 -25.39189,7.89865 -0.72311,0.24279 -0.3787,1.15489 -0.45951,1.74127 -0.044,1.71358 0.17211,3.45982 -0.0454,5.15264 -0.57502,0.86858 -1.77529,0.98409 -2.75296,1.10809 -1.9409,0.1057 -4.00708,0.23068 -5.84628,-0.70958 -0.71133,-0.2423 -1.18497,-0.93583 -1.1458,-1.67292 -0.13471,-0.68151 0.0969,-1.49621 -0.32475,-2.0751 -0.59175,-0.35932 -1.22941,0.20713 -1.82779,0.2852 -1.51536,0.51403 -3.10864,0.87404 -4.55224,1.55063 -0.49133,0.47118 0.13368,1.03549 0.55136,1.31686 2.63206,2.02501 5.29484,4.01885 7.84528,6.14746 0.54521,0.69123 1.33837,0.0281 1.97696,-0.0724 8.65401,-2.64916 17.34822,-5.19167 25.97081,-7.92957 7.93039,-2.91971 15.844,-5.88197 23.71812,-8.9339 0.52933,-0.19529 0.35818,-0.96499 -0.15785,-1.12666 -1.81279,-1.10498 -3.62171,-2.22639 -5.48593,-3.23396 -0.16595,-0.0782 -0.31571,0.0264 -0.47524,0.05 z"
         id="path1453-3-7-1-1"
         inkscape:connector-curvature="0" />
      <path
         style="opacity:1;fill:#a30316;fill-opacity:1;stroke:none;stroke-width:0.49741673;stroke-linecap:square;stroke-linejoin:bevel;stroke-miterlimit:4;stroke-dasharray:none;stroke-opacity:1;paint-order:markers stroke fill"
         d="m 366.06874,440.07806 c -7.62325,2.94812 -15.20697,6.03936 -22.86252,8.87741 -5.17172,1.8228 -10.51319,3.20393 -15.7841,4.77138 -3.86811,1.1225 -7.75232,2.20918 -11.62063,3.32365 -0.47731,0.49904 -0.17312,1.3223 -0.27301,1.9585 0.10472,14.82168 0.39982,29.66439 0.54621,44.48069 0.0788,0.66333 0.84991,0.67291 1.30716,0.48105 6.71756,-1.47949 13.30973,-3.38215 19.87249,-5.34895 4.72724,-1.55519 9.44473,-3.14898 14.06941,-4.95759 5.11825,-2.13094 10.21421,-4.32626 15.05029,-7.00023 0.42471,-0.51964 0.14658,-1.30927 0.24592,-1.94438 0.12576,-14.42113 0.0708,-28.85794 0.15436,-43.27874 -0.0165,-0.50578 0.23825,-1.45903 -0.70558,-1.36279 z"
         id="path1457-6-3-2-6"
         inkscape:connector-curvature="0" />
      <path
         style="opacity:1;fill:#a80004;fill-opacity:1;stroke:none;stroke-width:0.49741673;stroke-linecap:square;stroke-linejoin:bevel;stroke-miterlimit:4;stroke-dasharray:none;stroke-opacity:1;paint-order:markers stroke fill"
         d="m 365.94451,438.49546 c -3.4907,1.14476 -6.89039,2.53225 -10.33089,3.80603 -5.31391,1.97302 -10.57733,4.07812 -15.98039,5.8305 -8.12538,2.53771 -16.30516,4.92501 -24.43207,7.45672 -0.67591,0.26136 -0.2589,1.019 0.0587,1.44261 0.36842,0.70739 1.18823,0.39183 1.72377,0.20005 8.49148,-2.47108 17.02383,-4.82648 25.47054,-7.42615 8.02153,-3.05827 15.99187,-6.23478 23.9852,-9.3581 0.52912,-0.34847 0.23583,-1.12489 0.0657,-1.6487 -0.1226,-0.16624 -0.34609,-0.33649 -0.56049,-0.30296 z"
         id="path1455-1-9-0-4"
         inkscape:connector-curvature="0" />
      <path
         style="opacity:1;fill:#c20015;fill-opacity:1;stroke:none;stroke-width:0.49741673;stroke-linecap:square;stroke-linejoin:bevel;stroke-miterlimit:4;stroke-dasharray:none;stroke-opacity:1;paint-order:markers stroke fill"
         d="m 305.57693,448.96247 c -0.38269,0.60006 -0.13906,1.41784 -0.21056,2.11596 0.2235,10.38678 0.49628,20.77568 0.76653,31.16417 0.16625,4.93033 0.23501,9.86177 0.56289,14.79382 0.13711,0.73849 1.00929,1.00637 1.50956,1.48011 2.52163,1.79522 5.06107,3.58947 7.62971,5.29825 0.69363,0.28195 0.80978,-0.60123 0.71268,-1.0957 -0.1975,-15.1188 -0.40362,-30.23802 -0.60693,-45.3571 -0.69543,-1.68566 -2.37562,-2.65153 -3.72788,-3.77223 -2.02776,-1.54424 -4.02454,-3.15335 -6.07741,-4.64905 -0.202,-0.1293 -0.36435,-0.0509 -0.55854,0.0217 z"
         id="path1451-2-4-1-8"
         inkscape:connector-curvature="0" />
      <path
         sodipodi:nodetypes="cccccccccccccccccccccccccccccccccccccccccccsssccccccccccccccccccccccccccccccccccccccsssc"
         inkscape:connector-curvature="0"
         id="path959-7-8-2-1"
         d="m 312.12273,448.17282 0.0615,-9.57768 0.0802,-5.31971 0.11298,-3.24003 0.39354,-3.28255 1.0646,-4.61203 1.17316,-3.27874 1.78862,-3.74487 0.83067,-1.52486 0.8863,-1.34046 0.76035,-1.12757 0.90973,-1.12365 0.98904,-1.23797 0.76878,-0.86126 0.64129,-0.69831 1.60866,-1.4872 1.96658,-1.59475 1.08927,-0.78284 1.96898,-1.14782 2.10181,-1.02675 2.10891,-0.80312 2.18565,-0.60119 1.2579,-0.27275 1.97645,-0.17157 2.35801,0.0266 1.65787,0.13764 1.97089,0.39275 1.93065,0.60335 1.78364,0.77591 1.57685,0.91159 1.28495,0.95096 1.21749,1.04329 1.1031,1.13435 0.99671,1.10804 1.06772,1.49797 0.96109,1.67408 0.78588,1.6421 1.09589,3.13218 0.60796,2.53251 0.3814,3.52615 0.18733,5.54372 0.0354,8.1504 0.0392,4.11205 c 0,0 -0.53745,0.72612 -1.45317,1.16168 -0.67188,0.31959 -1.63049,0.39738 -2.51002,0.40969 -1.65004,0.0236 -3.547,-0.35755 -4.33209,-0.56186 -1.7686,-0.46022 -2.10521,-1.98311 -2.10521,-1.98311 l 0.15601,-6.1815 -0.0398,-5.32818 -0.13752,-4.34293 -0.12005,-2.30806 -0.39836,-2.20951 -0.57195,-1.76719 -0.81994,-1.82075 -1.00195,-1.27281 -1.0581,-1.0097 -0.87264,-0.52269 -1.02317,-0.46196 -1.46452,-0.32653 -1.83626,-0.0306 -1.44625,0.25017 -1.31453,0.33594 -1.76863,0.6239 -1.40068,0.76291 -1.46133,0.8848 -1.51786,1.13613 -1.28862,1.15392 -1.47564,1.54296 -1.14796,1.52216 -0.62781,0.91254 -0.78402,1.34943 -0.47028,0.88728 -0.52892,1.07389 -0.35954,0.86666 -0.58364,1.56638 -0.27776,0.85705 -0.36158,1.5428 -0.40452,1.48287 -0.22495,1.22886 -0.12007,0.46722 -0.0901,1.59695 -0.0696,1.32114 -0.0899,3.08456 0.29454,13.55489 c 0,0 -0.0731,0.89574 -1.61162,1.41929 -0.98578,0.33551 -3.23433,0.3851 -4.01097,0.36573 -1.77735,-0.0437 -2.64742,-0.47705 -3.50078,-0.79075 -1.72112,-0.6327 -1.53529,-2.48157 -1.53529,-2.48157 z"
         style="fill:#e6e5d8;fill-opacity:1;stroke:none;stroke-width:0.26458326px;stroke-linecap:butt;stroke-linejoin:miter;stroke-opacity:1" />
    </g>
  </g>
</svg>
