<?xml version="1.0" encoding="UTF-8" standalone="no"?>
<!-- Created with Inkscape (http://www.inkscape.org/) -->

<svg
   xmlns:dc="http://purl.org/dc/elements/1.1/"
   xmlns:cc="http://creativecommons.org/ns#"
   xmlns:rdf="http://www.w3.org/1999/02/22-rdf-syntax-ns#"
   xmlns:svg="http://www.w3.org/2000/svg"
   xmlns="http://www.w3.org/2000/svg"
   xmlns:xlink="http://www.w3.org/1999/xlink"
   xmlns:sodipodi="http://sodipodi.sourceforge.net/DTD/sodipodi-0.dtd"
   xmlns:inkscape="http://www.inkscape.org/namespaces/inkscape"
   width="210mm"
   height="297mm"
   viewBox="0 0 210 297"
   version="1.1"
   id="svg8"
   inkscape:version="0.92.3 (2405546, 2018-03-11)"
   sodipodi:docname="01.svg">
  <defs
     id="defs2">
    <linearGradient
       inkscape:collect="always"
       id="linearGradient871">
      <stop
         style="stop-color:#871e1b;stop-opacity:1"
         offset="0"
         id="stop867" />
      <stop
         id="stop877"
         offset="0.5"
         style="stop-color:#df554f;stop-opacity:1" />
      <stop
         id="stop875"
         offset="1"
         style="stop-color:#d7362f;stop-opacity:1" />
    </linearGradient>
    <linearGradient
       inkscape:collect="always"
       xlink:href="#linearGradient871"
       id="linearGradient873"
       x1="187.85417"
       y1="145.20476"
       x2="191.02917"
       y2="145.20476"
       gradientUnits="userSpaceOnUse"
       gradientTransform="translate(-153.08059,-1.5117207)" />
  </defs>
  <sodipodi:namedview
     id="base"
     pagecolor="#ffffff"
     bordercolor="#666666"
     borderopacity="1.0"
     inkscape:pageopacity="0.0"
     inkscape:pageshadow="2"
     inkscape:zoom="0.98994949"
     inkscape:cx="386.70139"
     inkscape:cy="511.87193"
     inkscape:document-units="mm"
     inkscape:current-layer="layer1"
     showgrid="false"
     inkscape:window-width="1920"
     inkscape:window-height="1017"
     inkscape:window-x="-8"
     inkscape:window-y="-8"
     inkscape:window-maximized="1" />
  <metadata
     id="metadata5">
    <rdf:RDF>
      <cc:Work
         rdf:about="">
        <dc:format>image/svg+xml</dc:format>
        <dc:type
           rdf:resource="http://purl.org/dc/dcmitype/StillImage" />
        <dc:title />
      </cc:Work>
    </rdf:RDF>
  </metadata>
  <g
     inkscape:label="Layer 1"
     inkscape:groupmode="layer"
     id="layer1">
    <g
       id="g970">
      <path
         inkscape:connector-curvature="0"
         id="rect815"
         d="m 36.033953,52.87195 v 181.6273 H 169.40125 V 52.87195 Z"
         style="fill:#e5dacd;fill-opacity:1;stroke:#a57b4d;stroke-width:2.54;stroke-linejoin:bevel;stroke-miterlimit:4;stroke-dasharray:none;stroke-opacity:1;paint-order:markers stroke fill;stroke-linecap:square" />
      <path
         inkscape:connector-curvature="0"
         id="rect815-5"
         d="m 34.773586,51.61804 v 184.15 h 40.64 v -184.15 z"
         style="fill:#d7362f;fill-opacity:1;stroke:none;stroke-width:0.33524212;stroke-miterlimit:4;stroke-dasharray:none;stroke-opacity:1" />
      <rect
         y="51.618038"
         x="34.773586"
         height="184.14999"
         width="6.3499999"
         id="rect834"
         style="fill:url(#linearGradient873);fill-opacity:1;stroke:none;stroke-width:0.74916917;stroke-miterlimit:4;stroke-dasharray:none;stroke-opacity:1" />
    </g>
    <path
       style="fill:#d2b283;fill-opacity:1;stroke:#000000;stroke-width:0.26458332px;stroke-linecap:butt;stroke-linejoin:miter;stroke-opacity:1"
       d="m 87.26909,141.12719 50.40127,-16.84316 6.93182,0.65996 6.5713,3.80422 0.2236,1.79021 -1.67538,48.91665 -4.63784,2.46141 -5.76215,2.77791 -3.09189,1.37135 -2.49459,1.09006 -2.67026,1.12521 -9.80269,3.65698 -5.62161,1.89882 -11.20809,3.37566 -7.543789,1.9758 -0.807444,0.0124 -9.339288,-6.36605 -0.193235,-0.45713 -0.122972,-6.75133 0.301641,-44.03567 z"
       id="path961"
       inkscape:connector-curvature="0" />
    <path
       style="fill:#c5c4cc;fill-opacity:1;stroke:#000000;stroke-width:0.26458332px;stroke-linecap:butt;stroke-linejoin:miter;stroke-opacity:1"
       d="m 93.610968,140.59974 0.386496,-10.127 0.263507,-5.6261 0.228382,-3.42841 0.527026,-3.48115 1.282428,-4.90527 1.352696,-3.49874 2.020278,-4.0086 0.931069,-1.63509 0.98379,-1.44169 0.84324,-1.21313 1.00134,-1.21313 1.08919,-1.3362 0.84325,-0.931824 0.7027,-0.756011 1.7539,-1.616849 2.13661,-1.740488 1.1801,-0.857811 2.12418,-1.268072 2.26083,-1.143748 2.26082,-0.907542 2.33536,-0.696198 1.34159,-0.323233 2.09934,-0.236205 2.49685,-0.03731 1.75152,0.09946 2.0745,0.360528 2.0248,0.58431 1.86332,0.770789 1.63972,0.919973 1.32917,0.969699 1.25463,1.069156 1.13042,1.168614 1.01861,1.143753 1.08073,1.554003 0.96186,1.743135 0.77736,1.714201 1.05576,3.28084 0.55899,2.66046 0.28571,3.71719 0.0124,5.8555 -0.23601,8.61542 -0.0964,4.34607 c 0,0 -0.59367,0.78255 -1.57827,1.26842 -0.72242,0.35649 -1.74044,0.46532 -2.67252,0.50273 -1.74859,0.0702 -3.74519,-0.27961 -4.56997,-0.47382 -1.85796,-0.43747 -2.16341,-2.0381 -2.16341,-2.0381 l 0.37266,-6.53927 0.13665,-5.63172 v -4.58743 l -0.0497,-2.43669 -0.34782,-2.32479 -0.54657,-1.85238 -0.80744,-1.9021 -1.01861,-1.3178 -1.08693,-1.03808 -0.90682,-0.528361 -1.0683,-0.459986 -1.54035,-0.304582 -1.94406,0.01863 -1.54034,0.304588 -1.40371,0.39161 -1.89437,0.708621 -1.50929,0.84539 -1.57761,0.97592 -1.64593,1.2432 -1.4037,1.25564 -1.61487,1.67211 -1.26706,1.64103 -0.69564,0.98214 -0.87576,1.44833 -0.52794,0.95106 -0.59627,1.14996 -0.40992,0.92619 -0.6708,1.67212 -0.32297,0.91375 -0.43478,1.64103 -0.47825,1.57888 -0.2795,1.30537 -0.14285,0.49728 -0.14907,1.69074 -0.11801,1.39862 -0.19875,3.26342 -0.14284,14.32173 c 0,0 -0.10755,0.94898 -1.75474,1.54515 -1.05547,0.38202 -3.438931,0.49683 -4.260946,0.49789 -1.881236,0.003 -2.788311,-0.43089 -3.68173,-0.73885 -1.801876,-0.62114 -1.542996,-2.58088 -1.542996,-2.58088 z"
       id="path959"
       inkscape:connector-curvature="0"
       sodipodi:nodetypes="cccccccccccccccccccccccccccccccccccccccccccsssccccccccccccccccccccccccccccccccccccccsssc" />
  </g>
</svg>
